<svg xmlns="http://www.w3.org/2000/svg" width="490" height="481.816" viewBox="0 0 490 481.816">
  <g id="moped" transform="translate(-1.998 -3)">
    <path id="Path_14" data-name="Path 14" d="M465.677,253.813a89.128,89.128,0,0,0-56.348-25.969L395.161,121.329h15.173a16.333,16.333,0,0,0,15.957-12.911A32.322,32.322,0,0,0,443,113.163h8.166A8.166,8.166,0,0,0,459.332,105V56a8.166,8.166,0,0,0-8.166-8.166H443a32.322,32.322,0,0,0-16.708,4.745,16.333,16.333,0,0,0-15.957-12.911H345a32.666,32.666,0,0,0-31.506,24.5H283.755a20.416,20.416,0,1,0,0,40.832h33.057A32.47,32.47,0,0,0,345,121.329V276.491a24.5,24.5,0,0,1-24.5,24.5H263.339v-98a8.166,8.166,0,0,0,8.166-8.166V178.494a24.5,24.5,0,0,0-24.5-24.5h-49V23.333A16.333,16.333,0,0,0,181.675,7H34.68A16.333,16.333,0,0,0,18.348,23.333V153.995A16.333,16.333,0,0,0,34.68,170.328h9.669a24.221,24.221,0,0,0-1.5,8.166,24.5,24.5,0,0,0,24.5,24.5h.817a106.98,106.98,0,0,0-25.651,22.449,24.442,24.442,0,1,0-21.061,42.343,105.908,105.908,0,0,0-3.1,25.038v49a8.166,8.166,0,0,0,8.166,8.166H76.1a65.331,65.331,0,1,0,129.486,0H338.7a57.238,57.238,0,0,0,15.4-2.278,65.331,65.331,0,1,0,120.871-22.221h8.861A8.166,8.166,0,0,0,492,317.323,89.243,89.243,0,0,0,465.677,253.813ZM443,64.165V96.83a16.333,16.333,0,1,1,0-32.666ZM345,56h65.331v49H357.252a20.416,20.416,0,1,0,0-40.832H330.94A16.276,16.276,0,0,1,345,56ZM279.672,84.581a4.083,4.083,0,0,1,4.083-4.083h73.5a4.083,4.083,0,1,1,0,8.166h-73.5A4.083,4.083,0,0,1,279.672,84.581Zm-32.665,85.747a8.166,8.166,0,0,1,8.166,8.166v8.166H189.842V170.328ZM181.675,39.666h-49V23.333h49ZM100.011,23.333h16.333V56H100.011Zm-16.333,0V39.666h-49V23.333ZM34.68,56h49v8.166a8.166,8.166,0,0,0,8.166,8.166h32.666a8.166,8.166,0,0,0,8.166-8.166V56h49v98H34.68ZM67.346,186.66a8.166,8.166,0,1,1,0-16.333H173.509V186.66Zm-49,57.165a8.166,8.166,0,0,1,8.166-8.166,8.076,8.076,0,0,1,6.6,3.42,105.431,105.431,0,0,0-6.532,12.806,8.354,8.354,0,0,1-8.232-8.06ZM214.341,300.99H68.162a40.905,40.905,0,0,1,40.015-32.666h98a8.166,8.166,0,0,1,8.166,8.166ZM67.346,317.323H214.341v16.333H67.346Zm81.664,40.832a8.166,8.166,0,1,1-8.166-8.166A8.166,8.166,0,0,1,149.01,358.154Zm40.832,0a49,49,0,1,1-98,0,50.028,50.028,0,0,1,.735-8.166h25.267a24.222,24.222,0,0,0-1.5,8.166,24.5,24.5,0,0,0,49,0,24.221,24.221,0,0,0-1.5-8.166h25.267a50.027,50.027,0,0,1,.735,8.166Zm40.832-24.5V276.491a24.5,24.5,0,0,0-24.5-24.5h-98a57.23,57.23,0,0,0-57.165,57.165v24.5H34.68V292.823a89.936,89.936,0,0,1,89.83-89.83h122.5V309.156a8.166,8.166,0,0,0,8.166,8.166H320.5a40.881,40.881,0,0,0,40.832-40.832V121.329h17.354l15.189,113.937L378.485,302a40.652,40.652,0,0,1-39.795,31.653Zm236.825,24.5a49,49,0,1,1-98,0,47.887,47.887,0,0,1,4.491-20.318,56.806,56.806,0,0,0,11.49-12.348H454.9a49,49,0,0,1,12.6,32.666Zm-74.224-49c.351-1.176.817-2.27,1.119-3.479l14.2-61.542a73.5,73.5,0,0,1,66.621,65.021Z" transform="translate(0 28.666)" fill="#e72628"/>
    <path id="Path_15" data-name="Path 15" d="M74.5,96A24.5,24.5,0,1,0,50,71.5,24.5,24.5,0,0,0,74.5,96Zm0-32.666A8.166,8.166,0,1,1,66.333,71.5,8.166,8.166,0,0,1,74.5,63.333Z" transform="translate(344.001 315.321)" fill="#e72628"/>
    <path id="Path_16" data-name="Path 16" d="M35,56h81.664V72.333H35Z" transform="translate(236.505 379.818)" fill="#e72628"/>
    <path id="Path_17" data-name="Path 17" d="M31,56H47.333V72.333H31Z" transform="translate(207.84 379.818)" fill="#e72628"/>
    <path id="Path_18" data-name="Path 18" d="M31,60h81.664V76.333H31Z" transform="translate(207.84 408.484)" fill="#e72628"/>
    <path id="Path_19" data-name="Path 19" d="M27,60H43.333V76.333H27Z" transform="translate(179.174 408.484)" fill="#e72628"/>
    <path id="Path_20" data-name="Path 20" d="M23,60H39.333V76.333H23Z" transform="translate(150.509 408.484)" fill="#e72628"/>
    <path id="Path_21" data-name="Path 21" d="M10,3H91.664V19.333H10Z" transform="translate(57.346)" fill="#e72628"/>
    <path id="Path_22" data-name="Path 22" d="M6,3H22.333V19.333H6Z" transform="translate(28.68)" fill="#e72628"/>
    <path id="Path_23" data-name="Path 23" d="M2,3H18.333V19.333H2Z" transform="translate(0.015)" fill="#e72628"/>
  </g>
</svg>
