<?xml version="1.0" encoding="UTF-8"?>
<svg width="58px" height="64px" viewBox="0 0 58 64" version="1.1" xmlns="http://www.w3.org/2000/svg" xmlns:xlink="http://www.w3.org/1999/xlink">
    <!-- Generator: Sketch 49.2 (51160) - http://www.bohemiancoding.com/sketch -->
    <title>svgGroup 6 Copy</title>
    <desc>Created with Sketch.</desc>
    <defs></defs>
    <g id="Desktop-v1.3" stroke="none" stroke-width="1" fill="none" fill-rule="evenodd">
        <g id="Donut/07-Event---Search" transform="translate(-1174.000000, -305.000000)" fill="#FDD9D7" fill-rule="nonzero">
            <g id="Group-6-Copy" transform="translate(1174.000000, 305.000000)">
                <path d="M25.3557271,13.5724912 L19.3454659,11.9620117 C18.688499,11.7859805 17.9515634,11.9318207 17.4222222,12.3425185 C17.0196335,12.6546589 16.7689981,13.0969201 16.7144795,13.5797271 L16.048655,16.0647485 C15.8524133,16.5193606 15.8507914,17.0379727 16.0494035,17.5174113 C16.1147758,17.6752281 16.2002339,17.8246862 16.3020351,17.9631657 C15.6657778,19.2878285 14.9404444,20.9215127 14.1790565,22.7390877 C14.1781832,22.7412086 14.1773099,22.7432047 14.1764366,22.7452008 C13.5113606,24.3330994 12.8192125,26.0602261 12.1355478,27.8436179 C9.8048499,28.475883 6.83277973,31.2038051 5.96809357,34.4300039 L0.247017544,55.7820507 C-0.303532164,57.8371618 1.04845224,59.9913294 3.26075634,60.5840468 L9.11769201,62.1534815 C9.11769201,62.1534815 9.11794152,62.1534815 9.11794152,62.1536062 L14.9746277,63.7229162 C15.3556335,63.8249669 15.7426277,63.8756179 16.1260039,63.8756179 C16.793575,63.8756179 17.4500429,63.7221676 18.0437583,63.4205068 C19.023345,62.922729 19.7129981,62.0883587 19.9855906,61.0710955 L20.7725536,58.1339571 C20.7726784,58.1335828 20.7729279,58.1330838 20.7729279,58.1327096 C20.7730526,58.1323353 20.7730526,58.131961 20.7731774,58.1315867 L25.7067914,39.7191735 C26.5713528,36.4928499 25.3612164,32.6444912 23.6590409,30.931462 C24.0878285,28.2311111 24.4443821,25.6212086 24.6962651,23.3672359 C24.6970136,23.3607485 24.6978869,23.3542612 24.6985107,23.3476491 C24.8245146,22.21823 24.9239454,21.179384 24.9931852,20.2630487 C25.5332554,19.9984405 25.9616686,19.5125146 26.1293411,18.8873606 L26.8569201,16.1722885 C27.1594542,15.0416218 26.4860195,13.8753996 25.3557271,13.5724912 Z M17.575423,60.4249825 C17.4884678,60.7492242 17.2534269,61.0230643 16.9133411,61.1958519 C16.5284678,61.391345 16.0692398,61.4328889 15.6202417,61.3126238 L9.76368031,59.7434386 C9.76355556,59.7434386 9.76355556,59.7433138 9.7634308,59.7433138 L3.90649513,58.1738791 C3.03806628,57.9412086 2.46593372,57.1415205 2.65706043,56.4276647 L3.12152827,54.6941754 L18.0398908,58.6916179 L17.575423,60.4249825 Z M18.6857544,56.281575 L3.76726706,52.2841326 L8.05551657,36.2807641 L22.9738791,40.2782066 L18.6857544,56.281575 Z M23.4886238,37.8329825 L8.832,33.905653 C9.91376218,31.7701988 12.1089747,30.2249669 13.0789552,30.2005146 C13.5855906,30.1877895 14.0343392,29.8696608 14.2141131,29.3957115 C14.8624717,27.6860507 15.5214347,26.0210526 16.1591891,24.4748226 L22.0546745,24.4748226 C21.849076,26.1499259 21.5934503,27.9812242 21.2996491,29.8729045 L20.9946199,29.7911891 C20.3287953,29.6127875 19.6450058,30.0077661 19.466729,30.6733411 C19.2884522,31.3389162 19.683306,32.0229552 20.3488811,32.201232 L21.7809591,32.5849825 C22.5937466,33.2345887 23.6136296,35.553809 23.4886238,37.8329825 Z M23.7951501,17.9580507 C23.7852943,17.9581754 23.7755634,17.9592982 23.7657076,17.9596725 C23.7564756,17.959922 23.7474932,17.9605458 23.738386,17.9611696 C23.7080702,17.9630409 23.6780039,17.9659103 23.6481871,17.9699025 C23.6378324,17.9712749 23.6276023,17.9725224 23.6173723,17.9741442 C23.5875556,17.978885 23.5581131,17.9848733 23.5287953,17.9917349 C23.5203119,17.993731 23.5115789,17.9952281 23.5030955,17.9974737 C23.4672904,18.0067057 23.4319844,18.0173099 23.3973021,18.0296608 C23.3860741,18.033653 23.3752203,18.0385185 23.3639922,18.0427602 C23.3406628,18.0518674 23.3174581,18.0612242 23.2947524,18.0715789 C23.280655,18.0780663 23.2669318,18.0850526 23.2532086,18.092039 C23.2336218,18.1018947 23.2144094,18.1121248 23.1953216,18.1229786 C23.1819727,18.1305887 23.1686238,18.1384483 23.1555244,18.1465575 C23.1356881,18.1587836 23.1164756,18.171883 23.0973879,18.185232 C23.0864094,18.1929669 23.075306,18.2003275 23.064577,18.2084366 C23.0392515,18.2273996 23.0147992,18.2473606 22.9909708,18.2681949 C22.9872281,18.2714386 22.9832359,18.274308 22.9796179,18.2776764 C22.9515478,18.3028772 22.9248499,18.3294503 22.8990253,18.3570214 C22.8936608,18.3627602 22.8887953,18.3688733 22.8835556,18.3747368 C22.8639688,18.3965692 22.8450058,18.4190253 22.8269162,18.4423548 C22.8195556,18.4518363 22.8125692,18.461692 22.8054581,18.471423 C22.7906121,18.4916335 22.7763899,18.5123431 22.7627914,18.5335517 C22.7551813,18.5454035 22.7476959,18.5575049 22.74046,18.5696062 C22.7287329,18.5893177 22.7177544,18.609653 22.7070253,18.6301131 C22.6997895,18.643961 22.6925536,18.6576842 22.6858168,18.6717817 C22.67646,18.6917427 22.6679766,18.7122027 22.6596179,18.7326628 C22.6533801,18.7477583 22.6466433,18.7626043 22.641154,18.7779493 C22.6301754,18.8081404 22.6205692,18.8390799 22.6118363,18.8705185 C22.6014815,18.9078207 22.5931228,18.9458713 22.5861365,18.9844211 C22.5846394,18.9925302 22.5823938,19.0006394 22.5810214,19.0087485 C22.5801481,19.0139883 22.5800234,19.0196023 22.5791501,19.0250916 C22.5736608,19.062768 22.5692943,19.1004444 22.5671735,19.1379961 C22.5217622,19.9547758 22.4429162,20.9142768 22.3352515,21.9798207 L17.2147524,21.9798207 C17.8597427,20.4975906 18.4601949,19.1991267 18.9775595,18.1756257 C18.9939025,18.1431891 19.008499,18.1095049 19.0220975,18.0753216 C19.0244678,18.0692086 19.0277115,18.0632203 19.0300819,18.0571072 C19.032577,18.0503704 19.0343236,18.0432593 19.0368187,18.0365224 C19.0505419,17.9985965 19.0625185,17.9604211 19.072499,17.9218713 C19.0806082,17.890308 19.0878441,17.8586199 19.0933333,17.8270565 C19.096078,17.8115867 19.097575,17.796117 19.0996959,17.7806472 C19.1028148,17.757692 19.1059337,17.7348616 19.1076803,17.7120312 C19.1089279,17.6974347 19.1094269,17.6828382 19.1100507,17.6682417 C19.1111735,17.6437895 19.1117973,17.619462 19.111423,17.5952593 C19.1111735,17.5822846 19.110924,17.5693099 19.1103002,17.55646 C19.1091774,17.5295127 19.1069318,17.5028148 19.1040624,17.4762417 C19.1029396,17.4658869 19.1019415,17.4555322 19.1005692,17.4451774 C19.0963275,17.4133645 19.0907135,17.3818012 19.0839766,17.3504873 C19.0828538,17.3452476 19.0821053,17.3401326 19.0809825,17.3348928 C19.0723743,17.2972164 19.0621442,17.260039 19.0501676,17.2234854 C19.0494191,17.2212398 19.0485458,17.2191189 19.0477973,17.2169981 C19.0369435,17.1845614 19.0245926,17.152499 19.0111189,17.1211852 C19.0061287,17.1097076 19.0006394,17.0984795 18.9953996,17.0871267 C18.9852943,17.0652943 18.9748148,17.0437115 18.9633372,17.0225029 C18.9562261,17.009154 18.9487407,16.9960546 18.9411306,16.9829552 C18.930152,16.964117 18.9185497,16.945653 18.9065731,16.9273138 C18.8979649,16.9140897 18.8893567,16.9008655 18.8802495,16.8878908 C18.8665263,16.8685536 18.8518051,16.8499649 18.8369591,16.8313762 C18.8287251,16.8210214 18.8209903,16.8102924 18.8122573,16.8001871 C18.7888031,16.7727407 18.7639766,16.7462924 18.738152,16.7209669 C18.7302924,16.713232 18.7219337,16.7062456 18.7138246,16.6987602 C18.693614,16.679922 18.6729045,16.6615828 18.6513216,16.6439922 C18.6420897,16.6365068 18.6324834,16.629271 18.6230019,16.6220351 C18.6004211,16.604694 18.5772164,16.5882261 18.5532632,16.5723821 C18.544655,16.566768 18.5361715,16.5610292 18.5273138,16.55554 C18.5194542,16.5505497 18.5118441,16.5449357 18.5038596,16.5401949 L19.0595244,14.4684912 L24.3503158,15.8860975 L23.7951501,17.9580507 Z" id="Shape"></path>
                <path d="M17.4405614,28.8392982 L17.4113684,28.8315634 C16.7457934,28.6541598 16.0620039,29.0497622 15.8844756,29.715462 C15.7068226,30.3812865 16.1025497,31.0648265 16.7683743,31.2423548 L16.7975673,31.2502144 C16.905232,31.2789084 17.0133957,31.2926316 17.1198129,31.2926316 C17.6711111,31.2926316 18.1756257,30.9242261 18.32446,30.366191 C18.5019883,29.7003665 18.1062612,29.0168265 17.4405614,28.8392982 Z" id="Shape"></path>
                <path d="M17.4441793,43.9293255 C16.8159064,42.841076 15.8015127,42.062846 14.5877583,41.7376062 C14.1887875,41.6306901 13.7784639,41.5764211 13.3682651,41.5764211 C11.2444133,41.5764211 9.37693567,43.0104951 8.82700975,45.0637349 C8.50176998,46.2773645 8.6685692,47.5450136 9.29684211,48.6331384 C9.92511501,49.7212632 10.9395088,50.4996179 12.1531384,50.8247329 C12.5521092,50.9316491 12.9624327,50.9857934 13.3726316,50.9857934 C15.4963587,50.9857934 17.363961,49.5518441 17.9140117,47.4984795 C18.2393762,46.2849747 18.0724522,45.0173255 17.4441793,43.9293255 Z M15.5040936,46.8528655 C15.2457232,47.817232 14.3693099,48.4906667 13.3727563,48.4906667 C13.1805068,48.4906667 12.9875088,48.4650916 12.7988772,48.4145653 C12.2289903,48.2618635 11.7526706,47.8963275 11.4577466,47.3854503 C11.1626979,46.8744483 11.0843509,46.2793606 11.2371774,45.7093489 C11.495423,44.7449825 12.3718363,44.071423 13.3683899,44.071423 C13.5606394,44.071423 13.7536374,44.0969981 13.942269,44.1475244 C14.5121559,44.3002261 14.9884756,44.6657622 15.2835244,45.1767641 C15.5783236,45.6877661 15.6566706,46.2829786 15.5040936,46.8528655 Z" id="Shape"></path>
                <path d="M57.3894113,55.7819259 L51.6682105,34.4300039 C50.8036491,31.2035556 47.8315789,28.4756335 45.5008811,27.8436179 C44.8172164,26.0602261 44.1250682,24.3329747 43.4599922,22.7452008 C43.4591189,22.7430799 43.4582456,22.7410838 43.4573723,22.738963 C42.6959844,20.9213879 41.9706511,19.2877037 41.334269,17.9631657 C41.4359454,17.8248109 41.5214035,17.6752281 41.5867758,17.5175361 C41.7855127,17.0380975 41.7837661,16.5193606 41.5876491,16.0647485 L40.9216998,13.5797271 C40.8671813,13.0970448 40.6166706,12.6547836 40.2140819,12.3426433 C39.6847407,11.9318207 38.9478051,11.7859805 38.2907135,11.9621365 L32.2803275,13.5724912 C31.7336452,13.7190799 31.2762885,14.0705185 30.9925926,14.5620585 C30.7087719,15.0537232 30.6330448,15.6256062 30.7796335,16.1722885 L31.506963,18.8874854 C31.6746355,19.5126394 32.1030487,19.9985653 32.6432437,20.2630487 C32.7123587,21.178885 32.8116647,22.2171072 32.9375439,23.3459025 C32.9382924,23.3538869 32.9394152,23.3618713 32.9402885,23.3698558 C33.1920468,25.6230799 33.5484756,28.2318596 33.9771384,30.9313372 C32.274963,32.6442417 31.0649513,36.4928499 31.9293879,39.7190487 L37.6505887,61.070846 C37.923306,62.0882339 38.6129591,62.9226043 39.5925458,63.4202573 C40.1862612,63.7220429 40.842729,63.8753684 41.5103002,63.8753684 C41.8935517,63.8753684 42.2806706,63.8248421 42.6615517,63.7226667 L54.3755478,60.583922 C55.4200078,60.3040936 56.310269,59.6660897 56.8822768,58.7875556 C57.4819805,57.8666043 57.6620039,56.7993138 57.3894113,55.7819259 Z M34.0296608,17.9753918 C34.0110721,17.9723977 33.9922339,17.9699025 33.9733957,17.9676569 C33.9519376,17.965037 33.9304795,17.9630409 33.9087719,17.9615439 C33.8940507,17.9605458 33.8793294,17.9595478 33.8643587,17.9590487 C33.856499,17.9587992 33.8488889,17.9579259 33.841154,17.9578012 L33.2861131,15.885848 L38.5769045,14.468616 L39.1321949,16.5403197 C39.1242105,16.5451852 39.1166004,16.5506745 39.1087407,16.5556647 C39.099883,16.5612788 39.0911501,16.5670175 39.0824172,16.5727563 C39.0587135,16.5884756 39.0356335,16.6049435 39.0131774,16.6220351 C39.0035712,16.6295205 38.9938402,16.6367563 38.9843587,16.6443665 C38.9631501,16.6617076 38.9426901,16.6797973 38.922729,16.698386 C38.9144951,16.7061209 38.9057622,16.7134815 38.897653,16.7213411 C38.872078,16.7465419 38.8473762,16.7728655 38.8240468,16.8000624 C38.8149396,16.8106667 38.8067057,16.8220195 38.7979727,16.8329981 C38.7836257,16.850963 38.7694035,16.8690526 38.7560546,16.8876413 C38.7465731,16.9008655 38.7378402,16.9144639 38.7288577,16.9281871 C38.7171306,16.9460273 38.7057778,16.9639922 38.6950487,16.9824561 C38.6871891,16.9958051 38.6795789,17.0094035 38.6722183,17.0231267 C38.6609903,17.043961 38.6507602,17.0650448 38.6407797,17.0863782 C38.6352904,17.0981053 38.6295517,17.1097076 38.6245614,17.1215595 C38.611462,17.1522495 38.5994854,17.1835634 38.5887563,17.2152515 C38.5877583,17.2181209 38.5865107,17.2209903 38.5856374,17.2238596 C38.5736608,17.2602885 38.5635556,17.2973411 38.5549474,17.334768 C38.5536998,17.3405068 38.5528265,17.3462456 38.5517037,17.3519844 C38.5450916,17.3826745 38.5394776,17.4137388 38.5352359,17.4450526 C38.5338635,17.4556569 38.5329903,17.466386 38.5317427,17.4769903 C38.5288733,17.5033138 38.5267524,17.5297622 38.5255049,17.55646 C38.5248811,17.5694347 38.5245068,17.5825341 38.5242573,17.5956335 C38.5240078,17.6197115 38.5246316,17.6437895 38.5257544,17.668117 C38.5263782,17.682963 38.5270019,17.6975595 38.528,17.7124055 C38.5298713,17.7352359 38.5329903,17.7579415 38.5361092,17.7807719 C38.53823,17.7962417 38.5397271,17.8118363 38.5425965,17.8271813 C38.54846,17.8603665 38.5556959,17.8934269 38.5644288,17.9264873 C38.5734113,17.9611696 38.5846394,17.9956023 38.5968655,18.0297856 C38.6001092,18.0388928 38.6026043,18.048499 38.6059727,18.0576062 C38.6074698,18.0614737 38.6094659,18.0652164 38.610963,18.0689591 C38.6254347,18.1058869 38.6412788,18.1419415 38.6589942,18.1767485 C39.1763587,19.2001248 39.7765614,20.4980897 40.4214269,21.9799454 L35.3010526,21.9799454 C35.1933879,20.9142768 35.1144172,19.9547758 35.0691306,19.1381209 C35.0670097,19.1003197 35.0626433,19.062269 35.0570292,19.0242183 C35.0562807,19.0191033 35.0560312,19.0139883 35.0552827,19.0089981 C35.0539103,19.0007641 35.0516647,18.9925302 35.0500429,18.9842963 C35.0434308,18.9476179 35.0358207,18.9111891 35.0260897,18.8756335 C35.0169825,18.8421988 35.0066277,18.8095127 34.9949006,18.7774503 C34.9897856,18.7632281 34.9835478,18.7495049 34.977809,18.7354074 C34.9689513,18.713575 34.9598441,18.6917427 34.9498635,18.6706589 C34.9436257,18.6575595 34.9367641,18.6447096 34.9300273,18.6317349 C34.9187992,18.610152 34.9071969,18.5888187 34.8949708,18.5679844 C34.8881092,18.5565068 34.8811228,18.5452788 34.8740117,18.5340507 C34.860039,18.5122183 34.8453177,18.490885 34.8299727,18.4700507 C34.8229864,18.4605692 34.8163743,18.450963 34.8091384,18.441731 C34.791423,18.4189006 34.7728343,18.3969435 34.7537466,18.3754854 C34.7477583,18.3688733 34.742269,18.3620117 34.7362807,18.3555244 C34.7112047,18.3287018 34.6851306,18.3028772 34.6579337,18.278425 C34.648577,18.2699415 34.6384717,18.2623314 34.6288655,18.2540975 C34.6111501,18.2391267 34.5935595,18.2242807 34.5749708,18.2104327 C34.559501,18.1985809 34.5432827,18.1877271 34.5271891,18.1766238 C34.5140897,18.1677661 34.501115,18.1589084 34.4877661,18.1505497 C34.4690526,18.1386979 34.4498402,18.127345 34.4303782,18.1164912 C34.4196491,18.1105029 34.4087953,18.1048889 34.3979415,18.0991501 C34.3761092,18.0877973 34.354152,18.076694 34.3316959,18.0665887 C34.3248343,18.0635945 34.3179727,18.0609747 34.3111111,18.0579805 C34.2356335,18.0257934 34.1566628,18.0010916 34.0746979,17.9843743 C34.0598519,17.9812554 34.0448811,17.9780117 34.0296608,17.9753918 Z M35.8558441,32.5849825 L37.2877973,32.2013567 C37.9533723,32.0230799 38.3483509,31.3389162 38.1699493,30.6734659 C37.9915478,30.0080156 37.3072593,29.6127875 36.6420585,29.7913138 L36.3370292,29.8730292 C36.0433528,27.9812242 35.7877271,26.1498012 35.5820039,24.4749474 L41.477614,24.4749474 C42.1153684,26.0211774 42.7744561,27.6861754 43.4226901,29.3958363 C43.6024639,29.8696608 44.0510877,30.1877895 44.557848,30.2005146 C45.5277037,30.2249669 47.7227914,31.7701988 48.8045536,33.9057778 L34.1479298,37.8331072 C34.022924,35.5536842 35.0429318,33.2344639 35.8558441,32.5849825 Z M38.9506745,56.2816998 L34.6625497,40.2782066 L49.5809123,36.2807641 L53.869037,52.2842573 L38.9506745,56.2816998 Z M54.7914854,57.4262144 C54.5558207,57.7880078 54.1789318,58.053614 53.7300585,58.1738791 L42.0160624,61.3126238 C41.5670643,61.4328889 41.1080858,61.3914698 40.7230877,61.1958519 C40.3830019,61.0230643 40.147961,60.7493489 40.0610058,60.4249825 L39.596538,58.6916179 L54.5149006,54.6941754 L54.9793684,56.4276647 C55.0661988,56.7520312 54.9995789,57.1067135 54.7914854,57.4262144 Z" id="Shape"></path>
                <path d="M41.7515789,29.7142144 C41.5733021,29.0487641 40.8896374,28.6534113 40.2238129,28.8318129 L40.1947446,28.8396725 C39.5291696,29.0179493 39.134191,29.7019883 39.3124678,30.3674386 C39.4616764,30.9249747 39.965692,31.2926316 40.5167407,31.2926316 C40.6234074,31.2926316 40.7321949,31.2787836 40.8402339,31.2498402 L40.8693021,31.2419805 C41.5348772,31.0637037 41.9298558,30.3796647 41.7515789,29.7142144 Z" id="Shape"></path>
                <path d="M48.8094191,45.0637349 C48.2593684,43.0103704 46.3917661,41.5762963 44.268039,41.5762963 C43.8578402,41.5762963 43.4475166,41.6305653 43.0485458,41.7374815 C41.8347914,42.0625965 40.8205224,42.8409513 40.1921248,43.9292008 C39.5639766,45.0173255 39.3970526,46.2849747 39.7221676,47.498729 C40.2723431,49.5517193 42.1399454,50.9857934 44.2635478,50.9859181 C44.2636725,50.9859181 44.2636725,50.9859181 44.2637973,50.9859181 C44.6738713,50.9859181 45.0841949,50.9316491 45.4831657,50.8248577 C46.6967953,50.4997427 47.7111891,49.7213879 48.339462,48.6332632 C48.9677349,47.5450136 49.1346589,46.2773645 48.8094191,45.0637349 Z M46.178807,47.385575 C45.8837583,47.896577 45.4074386,48.2619883 44.8376764,48.4146901 C44.6491696,48.4652164 44.4560468,48.4907914 44.263922,48.4907914 C44.263922,48.4907914 44.263922,48.4907914 44.2637973,48.4907914 C43.2673684,48.4907914 42.3907057,47.817232 42.1323353,46.8529903 C41.9796335,46.2831033 42.0579805,45.6878908 42.3529045,45.1768889 C42.6479532,44.6658869 43.1242729,44.3004756 43.6941598,44.1476491 C43.8826667,44.0971228 44.0757895,44.0715478 44.268039,44.0715478 C45.2644678,44.0715478 46.1410058,44.7451072 46.3993762,45.7095984 C46.552078,46.2793606 46.473731,46.8745731 46.178807,47.385575 Z" id="Shape"></path>
                <path d="M28.8182144,0 C28.1291852,0 27.5706511,0.558534113 27.5706511,1.24756335 L27.5706511,4.58654191 C27.5706511,5.27557115 28.1291852,5.83410526 28.8182144,5.83410526 C29.5071189,5.83410526 30.0657778,5.27557115 30.0657778,4.58654191 L30.0657778,1.24756335 C30.0657778,0.558534113 29.5072437,0 28.8182144,0 Z" id="Shape"></path>
                <path d="M24.6458635,6.26189474 L22.9496764,3.3702924 C22.6011072,2.77595322 21.8366004,2.57671735 21.242386,2.92541131 C20.6480468,3.27398051 20.4489357,4.03836257 20.7975049,4.63270175 L22.493692,7.52430409 C22.7259883,7.9202807 23.1427992,8.1408499 23.570963,8.1408499 C23.7854191,8.1408499 24.0027446,8.08558285 24.2009825,7.96918519 C24.7953216,7.62049123 24.9944327,6.85610916 24.6458635,6.26189474 Z" id="Shape"></path>
                <path d="M36.3942924,2.92541131 C35.7998285,2.57671735 35.0354464,2.77607797 34.6868772,3.3702924 L32.9906901,6.26189474 C32.6421209,6.85623392 32.841232,7.62061598 33.4355712,7.96918519 C33.6339337,8.08558285 33.8511345,8.1408499 34.0655906,8.1408499 C34.4937544,8.1408499 34.9105653,7.9202807 35.1429864,7.52430409 L36.8391735,4.63270175 C37.1877427,4.03836257 36.9885068,3.27398051 36.3942924,2.92541131 Z" id="Shape"></path>
            </g>
        </g>
    </g>
</svg>