<?xml version="1.0" encoding="UTF-8"?>
<svg width="24px" height="16px" viewBox="0 0 24 16" version="1.1" xmlns="http://www.w3.org/2000/svg" xmlns:xlink="http://www.w3.org/1999/xlink">
    <!-- Generator: Sketch 51 (57462) - http://www.bohemiancoding.com/sketch -->
    <title>China</title>
    <desc>Created with Sketch.</desc>
    <defs></defs>
    <g id="Design" stroke="none" stroke-width="1" fill="none" fill-rule="evenodd">
        <g id="Biscuit/04-Menu---Language" transform="translate(-16.000000, -224.000000)">
            <rect fill="#FFFFFF" x="0" y="0" width="320" height="568"></rect>
            <g id="China" transform="translate(16.000000, 224.000000)" fill-rule="nonzero">
                <rect id="Rectangle-22" fill="#D80027" x="0" y="0" width="24" height="16"></rect>
                <g id="Group-2" transform="translate(1.000000, 1.000000)" fill="#FFDA44">
                    <polygon id="Shape" points="2.94951563 0.823453125 3.63651563 2.93784375 5.85975 2.93784375 4.06110938 4.244625 4.74815625 6.35910938 2.94951563 5.05228125 1.150875 6.35910938 1.837875 4.244625 0.039234375 2.93784375 2.26246875 2.93784375"></polygon>
                    <polygon id="Shape" points="7.2796875 7.85592187 6.60515625 7.36584375 5.93071875 7.855875 6.18829688 7.06303125 5.5138125 6.57295312 6.34753125 6.57295312 6.60515625 5.78001562 6.862875 6.57295312 7.69654687 6.57295312 7.0220625 7.06298437"></polygon>
                    <polygon id="Shape" points="9.03923437 5.43407812 8.2055625 5.43407812 7.9479375 6.22692187 7.6903125 5.434125 6.85654687 5.43407812 7.531125 4.944 7.27340625 4.15110937 7.9479375 4.64109375 8.62242187 4.15110937 8.36479687 4.944"></polygon>
                    <polygon id="Shape" points="9.03923437 2.44045312 8.36479687 2.93053125 8.622375 3.723375 7.9479375 3.23339062 7.27340625 3.72346875 7.531125 2.93048437 6.85654687 2.44054687 7.69035937 2.44045312 7.9479375 1.64751562 8.2055625 2.44045312"></polygon>
                    <polygon id="Shape" points="7.2796875 0.018609375 7.02210938 0.811546875 7.69654688 1.30153125 6.862875 1.30157813 6.60515625 2.0945625 6.34753125 1.30153125 5.51385938 1.301625 6.18834375 0.8115 5.93071875 0.0185625 6.60515625 0.508640625"></polygon>
                </g>
            </g>
        </g>
    </g>
</svg>