<?xml version="1.0" encoding="UTF-8"?>
<svg width="24px" height="16px" viewBox="0 0 24 16" version="1.1" xmlns="http://www.w3.org/2000/svg" xmlns:xlink="http://www.w3.org/1999/xlink">
    <!-- Generator: Sketch 51 (57462) - http://www.bohemiancoding.com/sketch -->
    <title>united-kingdom copy 10</title>
    <desc>Created with Sketch.</desc>
    <defs></defs>
    <g id="Design" stroke="none" stroke-width="1" fill="none" fill-rule="evenodd">
        <g id="Biscuit/04-Menu---Language" transform="translate(-16.000000, -80.000000)">
            <rect fill="#FFFFFF" x="0" y="0" width="320" height="568"></rect>
            <g id="united-kingdom-copy-10" transform="translate(16.000000, 80.000000)" fill-rule="nonzero">
                <path d="M23.5402105,15.9869048 L0.413005848,15.9869048 C0.184935673,15.9869048 0,15.7986667 0,15.5665238 L0,0.43352381 C0,0.201380952 0.184935673,0.0131428571 0.413005848,0.0131428571 L23.5402573,0.0131428571 C23.7683275,0.0131428571 23.9532632,0.201380952 23.9532632,0.43352381 L23.9532632,15.5665238 C23.9532164,15.7986667 23.7682807,15.9869048 23.5402105,15.9869048 Z" id="Shape" fill="#41479B"></path>
                <path d="M23.9532164,0.43352381 C23.9532164,0.201380952 23.7682807,0.0131428571 23.5402105,0.0131428571 L21.6924912,0.0131428571 L14.0414971,5.11538095 L14.0414971,0.0131428571 L9.91162573,0.0131428571 L9.91162573,5.11538095 L2.26067836,0.0131428571 L0.413005848,0.0131428571 C0.184935673,0.0131428571 0,0.201380952 0,0.43352381 L0,1.52071429 L6.56416374,5.89819048 L0,5.89819048 L0,10.1018095 L6.56416374,10.1018095 L0,14.4793333 L0,15.5665238 C0,15.7986667 0.184935673,15.9869048 0.413005848,15.9869048 L2.26072515,15.9869048 L9.9117193,10.8846667 L9.9117193,15.9869048 L14.0415906,15.9869048 L14.0415906,10.8846667 L21.6925848,15.9869048 L23.5403041,15.9869048 C23.7683743,15.9869048 23.9533099,15.7986667 23.9533099,15.5665238 L23.9533099,14.4793333 L17.3891462,10.1018571 L23.9532164,10.1018571 L23.9532164,5.8982381 L17.3890526,5.8982381 L23.9532164,1.52071429 L23.9532164,0.43352381 Z" id="Shape" fill="#F5F5F5"></path>
                <g id="Group" fill="#FF4B55">
                    <polygon id="Shape" points="23.9532164 6.73895238 13.2155789 6.73895238 13.2155789 0.0131428571 10.7376374 0.0131428571 10.7376374 6.73895238 0 6.73895238 0 9.26109524 10.7376374 9.26109524 10.7376374 15.9869048 13.2155789 15.9869048 13.2155789 9.26109524 23.9532164 9.26109524"></polygon>
                    <path d="M8.37183626,10.1018095 L0.0116959064,15.6254762 C0.0409356725,15.8284762 0.205380117,15.9869048 0.412959064,15.9869048 L0.98180117,15.9869048 L9.88893567,10.1018095 L8.37183626,10.1018571 L8.37183626,10.1018095 Z" id="Shape"></path>
                    <path d="M16.2052865,10.1018095 L14.6881871,10.1018095 L23.5823626,15.9781905 C23.7896608,15.9557143 23.9532632,15.7834286 23.9532632,15.5664762 L23.9532632,15.2208571 L16.2052865,10.1018095 Z" id="Shape"></path>
                    <path d="M0,0.897571429 L7.56860819,5.8982381 L9.0857076,5.8982381 L0.240608187,0.0541428571 C0.0993216374,0.120952381 0,0.26452381 0,0.43352381 L0,0.897571429 Z" id="Shape"></path>
                    <path d="M15.5586433,5.8982381 L23.9388538,0.361238095 C23.9040468,0.164952381 23.7431111,0.0131904762 23.5402105,0.0131904762 L22.948538,0.0131904762 L14.0415439,5.8982381 L15.5586433,5.8982381 Z" id="Shape"></path>
                </g>
            </g>
        </g>
    </g>
</svg>