<?xml version="1.0" encoding="UTF-8"?>
<svg width="64px" height="64px" viewBox="0 0 64 64" version="1.1" xmlns="http://www.w3.org/2000/svg" xmlns:xlink="http://www.w3.org/1999/xlink">
    <!-- Generator: Sketch 51 (57462) - http://www.bohemiancoding.com/sketch -->
    <title>Other/Image/Restaurant 64x64</title>
    <desc>Created with Sketch.</desc>
    <defs>
        <path d="M8.51654054,2.33091907 L7.46515315,3.88116324 C7.46515315,3.88116324 6.20767568,4.44023045 5.10810811,5.51015638 C3.68565766,6.89356379 0.0958558559,9.74947599 0.0958558559,9.74947599 L3.01567568,18.2013608 L3.77646847,18.1274074 C3.77646847,18.1274074 4.53675676,18.4835446 5.69459459,18.8654266 C6.85268468,19.247561 10.9613694,20.3914403 10.9613694,20.3914403 L30.518991,20.3914403 L36.1623784,18.2013608 L36.1623784,14.6213114 L37.3098739,11.9658052 L34.686955,5.03513855 L21.2961441,0.00681481481 L8.51654054,2.33091907 Z" id="path-1"></path>
        <polygon id="path-3" points="40.0635276 -11.3779556 60.2889657 -11.3779556 60.2889657 18.4432508 40.0635276 18.4432508"></polygon>
        <polyline id="path-5" points="-0.36896732 -16.8052367 -3.52800871 -13.0368696 2.72689325 5.99186473 22.160305 1.4894686 21.2815861 -6.00305314 6.83364706 -16.8052367"></polyline>
        <polygon id="path-7" points="36.0393838 -37.085658 17.585396 -29.5110261 11.6903722 -16.7574029 20.1761309 2.24371014 21.8144349 2.67070145 25.8297151 3.15227826 27.0258923 4.12563478 30.962743 5.00869565 34.0942822 7.50381449 35.9568534 10.7243594 35.569576 12.8817623 33.0918718 14.0834087 33.4763299 14.8287304 35.0369734 16.9193043 33.3053742 18.8134725 34.0942822 19.8421797 40.3130198 21.3333333 43.5299087 18.8134725 41.4384567 17.1945275 41.0386203 6.81537391 41.0386203 1.08415072 42.9055487 0.424278261 41.6591357 -6.02854493 43.7585331 -7.9148058 46.021197 -9.51895652 46.3151793 -11.826087 50.0820995 -13.0165101 53.2971943 -17.7776928 48.8169761 -25.7701333"></polygon>
        <polyline id="path-9" points="36.0393838 -37.085658 17.585396 -29.5110261 11.6903722 -16.7574029 20.1761309 2.24371014 21.8144349 2.67070145 25.8297151 3.15227826 27.0258923 4.12563478 30.962743 5.00869565 34.0942822 7.50381449 35.9568534 10.7243594 35.569576 12.8817623 33.0918718 14.0834087 33.4763299 14.8287304 35.0369734 16.9193043 33.3053742 18.8134725 34.0942822 19.8421797 40.3130198 21.3333333 43.5299087 18.8134725 41.4384567 17.1945275 41.0386203 6.81537391 41.0386203 1.08415072 42.9055487 0.424278261 41.6591357 -6.02854493 43.7585331 -7.9148058 46.021197 -9.51895652 46.3151793 -11.826087 50.0820995 -13.0165101 53.2971943 -17.7776928 48.8169761 -25.7701333"></polyline>
        <polyline id="path-11" points="36.0393838 -37.085658 17.585396 -29.5110261 11.6903722 -16.7574029 20.1761309 2.24371014 21.8144349 2.67070145 25.8297151 3.15227826 27.0258923 4.12563478 30.962743 5.00869565 34.0942822 7.50381449 35.9568534 10.7243594 35.569576 12.8817623 33.0918718 14.0834087 33.4763299 14.8287304 35.0369734 16.9193043 33.3053742 18.8134725 34.0942822 19.8421797 40.3130198 21.3333333 43.5299087 18.8134725 41.4384567 17.1945275 41.0386203 6.81537391 41.0386203 1.08415072 42.9055487 0.424278261 41.6591357 -6.02854493 43.7585331 -7.9148058 46.021197 -9.51895652 46.3151793 -11.826087 50.0820995 -13.0165101 53.2971943 -17.7776928 48.8169761 -25.7701333"></polyline>
        <polyline id="path-13" points="36.0393838 -37.085658 17.585396 -29.5110261 11.6903722 -16.7574029 20.1761309 2.24371014 21.8144349 2.67070145 25.8297151 3.15227826 27.0258923 4.12563478 30.962743 5.00869565 34.0942822 7.50381449 35.9568534 10.7243594 35.569576 12.8817623 33.0918718 14.0834087 33.4763299 14.8287304 35.0369734 16.9193043 33.3053742 18.8134725 34.0942822 19.8421797 40.3130198 21.3333333 43.5299087 18.8134725 41.4384567 17.1945275 41.0386203 6.81537391 41.0386203 1.08415072 42.9055487 0.424278261 41.6591357 -6.02854493 43.7585331 -7.9148058 46.021197 -9.51895652 46.3151793 -11.826087 50.0820995 -13.0165101 53.2971943 -17.7776928 48.8169761 -25.7701333"></polyline>
        <polyline id="path-15" points="36.0393838 -37.085658 17.585396 -29.5110261 11.6903722 -16.7574029 20.1761309 2.24371014 21.8144349 2.67070145 25.8297151 3.15227826 27.0258923 4.12563478 30.962743 5.00869565 34.0942822 7.50381449 35.9568534 10.7243594 35.569576 12.8817623 33.0918718 14.0834087 33.4763299 14.8287304 35.0369734 16.9193043 33.3053742 18.8134725 34.0942822 19.8421797 40.3130198 21.3333333 43.5299087 18.8134725 41.4384567 17.1945275 41.0386203 6.81537391 41.0386203 1.08415072 42.9055487 0.424278261 41.6591357 -6.02854493 43.7585331 -7.9148058 46.021197 -9.51895652 46.3151793 -11.826087 50.0820995 -13.0165101 53.2971943 -17.7776928 48.8169761 -25.7701333"></polyline>
        <polyline id="path-17" points="36.0393838 -37.085658 17.585396 -29.5110261 11.6903722 -16.7574029 20.1761309 2.24371014 21.8144349 2.67070145 25.8297151 3.15227826 27.0258923 4.12563478 30.962743 5.00869565 34.0942822 7.50381449 35.9568534 10.7243594 35.569576 12.8817623 33.0918718 14.0834087 33.4763299 14.8287304 35.0369734 16.9193043 33.3053742 18.8134725 34.0942822 19.8421797 40.3130198 21.3333333 43.5299087 18.8134725 41.4384567 17.1945275 41.0386203 6.81537391 41.0386203 1.08415072 42.9055487 0.424278261 41.6591357 -6.02854493 43.7585331 -7.9148058 46.021197 -9.51895652 46.3151793 -11.826087 50.0820995 -13.0165101 53.2971943 -17.7776928 48.8169761 -25.7701333"></polyline>
        <polyline id="path-19" points="36.0393838 -37.085658 17.585396 -29.5110261 11.6903722 -16.7574029 20.1761309 2.24371014 21.8144349 2.67070145 25.8297151 3.15227826 27.0258923 4.12563478 30.962743 5.00869565 34.0942822 7.50381449 35.9568534 10.7243594 35.569576 12.8817623 33.0918718 14.0834087 33.4763299 14.8287304 35.0369734 16.9193043 33.3053742 18.8134725 34.0942822 19.8421797 40.3130198 21.3333333 43.5299087 18.8134725 41.4384567 17.1945275 41.0386203 6.81537391 41.0386203 1.08415072 42.9055487 0.424278261 41.6591357 -6.02854493 43.7585331 -7.9148058 46.021197 -9.51895652 46.3151793 -11.826087 50.0820995 -13.0165101 53.2971943 -17.7776928 48.8169761 -25.7701333"></polyline>
        <polyline id="path-21" points="36.0393838 -37.085658 17.585396 -29.5110261 11.6903722 -16.7574029 20.1761309 2.24371014 21.8144349 2.67070145 25.8297151 3.15227826 27.0258923 4.12563478 30.962743 5.00869565 34.0942822 7.50381449 35.9568534 10.7243594 35.569576 12.8817623 33.0918718 14.0834087 33.4763299 14.8287304 35.0369734 16.9193043 33.3053742 18.8134725 34.0942822 19.8421797 40.3130198 21.3333333 43.5299087 18.8134725 41.4384567 17.1945275 41.0386203 6.81537391 41.0386203 1.08415072 42.9055487 0.424278261 41.6591357 -6.02854493 43.7585331 -7.9148058 46.021197 -9.51895652 46.3151793 -11.826087 50.0820995 -13.0165101 53.2971943 -17.7776928 48.8169761 -25.7701333"></polyline>
    </defs>
    <g id="Other/Image/Restaurant-64x64" stroke="none" stroke-width="1" fill="none" fill-rule="evenodd" opacity="0.300000012">
        <g id="Group">
            <rect id="img-copy-24" x="0" y="0" width="64" height="64" rx="4"></rect>
            <g id="icon" transform="translate(1.777778, 35.555556)">
                <mask id="mask-2" fill="white">
                    <use xlink:href="#path-1"></use>
                </mask>
                <g id="Clip-2"></g>
                <path d="M-16.8794342,7.20272922 L-15.1827856,7.20272922 L-15.1827856,12.2959199 L-16.8794342,12.2959199 C-18.2812,12.2959199 -19.4614883,11.1149377 -19.4614883,9.71234787 C-19.3878306,8.38371139 -18.2812,7.20272922 -16.8794342,7.20272922 Z M-13.7073622,2.33089383 L5.98975495,2.33089383 L5.98975495,4.84076488 C3.33404324,6.68606529 1.78496216,9.12198299 1.78496216,12.0008636 C1.78496216,12.5912285 2.07984505,13.3295001 3.26013333,13.6985097 C3.18647568,14.1414727 3.18647568,14.6581366 3.4077009,15.1748005 C3.33404324,15.2485015 3.26013333,15.3961558 3.11256577,15.5438102 C2.9649982,15.8391188 2.44889009,16.503437 2.89134054,17.3154096 C3.03890811,17.6107182 3.26013333,17.9060269 3.77649369,18.1273822 C3.62892613,18.1273822 3.48135856,18.2013355 3.33404324,18.2013355 L-10.9777405,18.2013355 C-12.453164,18.2013355 -13.7073622,17.020101 -13.7073622,15.4701092 L-13.7073622,2.33089383 Z M18.9734306,18.3489898 C16.022836,18.3489898 13.6622595,18.2750365 11.817791,18.1273822 C9.60478198,17.9797278 8.05544865,17.8320735 6.94881802,17.6107182 C6.28489009,17.4630639 5.76852973,17.3891106 5.39973694,17.2417086 C4.36676396,16.9464 4.29310631,16.6510914 4.2191964,16.6510914 C4.2191964,16.5773904 4.29310631,16.4297361 4.36676396,16.3557827 C4.36676396,16.2820818 4.44067387,16.2820818 4.44067387,16.2081284 C4.80946667,16.4297361 5.25216937,16.503437 5.76852973,16.5773904 C5.9160973,16.5773904 6.06366486,16.6510914 6.28489009,16.6510914 L7.31761081,16.6510914 L11.0062955,16.6510914 L11.9653586,17.2417086 C12.1129261,17.3154096 12.1865838,17.3154096 12.3341514,17.3154096 C12.4817189,17.3154096 12.6292865,17.2417086 12.7768541,17.1677553 L13.5146919,16.6510914 C15.9489261,16.6510914 19.0473405,16.7250447 21.7769622,16.7250447 L24.5802414,16.7250447 L25.3180793,17.2417086 C25.4656468,17.3154096 25.6132144,17.3891106 25.760782,17.3891106 C25.9083495,17.3891106 26.0559171,17.3891106 26.1295748,17.3154096 L26.940818,16.7987457 L29.8919171,16.7987457 C31.2934306,16.7987457 32.3264036,16.4297361 33.1378991,15.6914645 C33.211809,15.8391188 33.3591243,15.9130722 33.4330342,16.0604741 C33.4330342,16.1344274 33.5066919,16.2081284 33.5806018,16.2820818 C33.6542595,16.3557827 33.7281694,16.503437 33.7281694,16.5773904 C33.7281694,16.7250447 33.0642414,18.3489898 18.9734306,18.3489898 Z M32.2524937,14.7318376 C31.8100432,15.2485015 31.0722054,15.4701092 30.0394847,15.4701092 L29.5231243,15.4701092 L31.5149081,14.289127 C31.5885658,14.289127 31.5885658,14.2151737 31.5885658,14.2151737 C31.9573586,14.2151737 32.3264036,14.2151737 32.6215387,14.1414727 C32.5476288,14.289127 32.4739712,14.5104823 32.2524937,14.7318376 Z M23.1784757,13.9938184 C24.2851063,13.9938184 25.3180793,14.0675193 26.2768901,14.0675193 C27.1622955,14.0675193 28.0474486,14.1414727 28.7852865,14.1414727 L25.9083495,15.9130722 L23.1784757,13.9938184 Z M17.5721694,13.919865 L19.0473405,13.919865 L20.5966739,13.919865 C20.6703315,13.9938184 20.6703315,14.0675193 20.7442414,14.0675193 L22.5145477,15.3224549 L21.9245297,15.3224549 C19.858836,15.3224549 17.645827,15.2485015 15.653791,15.2485015 L17.5721694,13.919865 Z M8.57180901,15.1748005 L7.46517838,15.1748005 L6.21123243,15.1748005 L5.98975495,15.1748005 C5.5473045,15.1748005 5.03069189,15.0271462 4.80946667,14.7318376 C4.6618991,14.5104823 4.6618991,14.289127 4.6618991,13.9938184 C5.03069189,14.0675193 5.47339459,14.0675193 5.98975495,14.0675193 L6.3588,14.0675193 L6.80125045,14.0675193 L7.46517838,14.4367813 L7.61274595,14.5104823 L9.08816937,15.1008472 C8.9406018,15.1748005 8.79303423,15.1748005 8.57180901,15.1748005 Z M12.4080613,15.7654178 L9.67843964,14.1414727 C10.4162775,14.1414727 11.3011784,14.1414727 12.1865838,14.0675193 C13.0719892,14.0675193 14.0310523,13.9938184 14.9898631,13.9938184 L12.4080613,15.7654178 Z M10.4162775,4.2501476 L12.2604937,7.49803786 C12.4080613,7.71939314 12.6292865,7.86704746 12.9244216,7.86704746 C13.0719892,7.86704746 13.1456468,7.86704746 13.2932144,7.7933465 C13.6622595,7.57173882 13.7359171,7.12902826 13.5883495,6.76001866 L11.8914486,3.73348368 C13.5146919,3.29052071 15.2849982,2.99521207 17.2770342,2.84781015 L19.2685658,6.31705569 C19.4161333,6.53841097 19.6376108,6.68606529 19.9327459,6.68606529 C20.0803135,6.68606529 20.1539712,6.68606529 20.3015387,6.61236433 C20.6703315,6.39075665 20.7442414,5.94779369 20.5966739,5.57878409 L18.9736829,2.77385679 L19.0473405,2.77385679 C21.1130342,2.77385679 23.0309081,2.99521207 24.8017189,3.36422167 L26.8671604,7.0550749 C27.0147279,7.27643018 27.2359532,7.4240845 27.5310883,7.4240845 C27.6786559,7.4240845 27.7525658,7.4240845 27.9001333,7.35038354 C28.2689261,7.12902826 28.3425838,6.68606529 28.1950162,6.31705569 L26.7195928,3.95483896 C31.5885658,5.43112977 34.6869802,8.38371139 34.6869802,11.8532093 C34.6869802,12.0745646 34.465755,12.2959199 33.6542595,12.4435742 C33.5066919,12.4435742 33.3591243,12.5175276 33.1378991,12.5175276 C32.5476288,12.5912285 31.6624757,12.6651819 30.555845,12.6651819 C29.3018991,12.6651819 27.9001333,12.5912285 26.2768901,12.5912285 C24.137791,12.5175276 21.7033045,12.4435742 19.0473405,12.4435742 C16.5391964,12.4435742 14.1786198,12.5175276 12.1129261,12.5912285 C10.9323856,12.5912285 9.82600721,12.6651819 8.86694414,12.6651819 L7.76031351,12.6651819 L7.46517838,12.6651819 L5.98975495,12.6651819 C5.39973694,12.6651819 4.95703423,12.5912285 4.58824144,12.5175276 C4.36676396,12.5175276 4.2191964,12.4435742 4.07162883,12.4435742 C3.70283604,12.3698733 3.26013333,12.2222189 3.26013333,12.0008636 C3.26013333,10.0076565 4.29310631,8.23605706 5.98975495,6.76001866 C6.43245766,6.39075665 6.94881802,6.02174705 7.46517838,5.72643841 C8.35058378,5.13607353 9.30964685,4.6191572 10.4162775,4.2501476 Z M-16.8794342,13.7722107 L-15.1827856,13.7722107 L-15.1827856,15.4701092 C-15.1827856,17.7583726 -13.3383171,19.6776263 -10.9777405,19.6776263 L3.26013333,19.6776263 C4.14553874,19.6776263 5.03069189,19.3823177 5.69487207,18.8656538 C7.90788108,19.3823177 11.8914486,19.8252807 18.9734306,19.8252807 C32.0312685,19.8252807 34.465755,18.4966442 35.055773,17.3154096 C35.4984757,16.503437 34.9821153,15.7654178 34.7606378,15.4701092 C34.5394126,15.0271462 34.1706198,14.6581366 34.0230523,14.4367813 C34.0967099,14.2151737 34.1706198,13.9938184 34.1706198,13.8461641 C35.2772505,13.5508554 36.0887459,13.0341915 36.1624036,11.9269103 C36.1624036,5.80013937 28.9328541,1.37126694 18.9734306,1.37126694 C14.399845,1.37126694 10.4162775,2.33089383 7.46517838,3.881138 L7.46517838,1.51892126 C7.46517838,1.0762107 7.17004324,0.780902058 6.72734054,0.780902058 L-14.4449477,0.780902058 C-14.8876505,0.780902058 -15.1827856,1.0762107 -15.1827856,1.51892126 L-15.1827856,5.72643841 L-16.8794342,5.72643841 C-19.0926955,5.72643841 -20.9369117,7.49803786 -20.9369117,9.78630123 C-20.8630018,12.0008636 -19.0926955,13.7722107 -16.8794342,13.7722107 Z" id="Fill-1" fill="#F44336" mask="url(#mask-2)"></path>
                <mask id="mask-4" fill="white">
                    <use xlink:href="#path-3"></use>
                </mask>
                <g id="Clip-5"></g>
                <path d="M58.1727638,10.9257905 L42.1783934,10.9257905 L41.6637487,1.8207746 C41.6637487,1.37607619 42.0239243,1.0151873 42.464868,1.0151873 L43.3649284,1.0151873 L45.5123523,1.0151873 L45.5282535,1.0151873 L45.7917597,1.0151873 C46.1706129,3.10407619 47.9914305,4.69290159 50.1749476,4.69290159 C51.661082,4.69290159 52.9672549,3.94648889 53.7761986,2.81734603 C53.8150683,2.77264762 53.8458612,2.72820317 53.87413,2.67817143 C54.2032604,2.18064762 54.4478365,1.62369524 54.5581355,1.0151873 L57.8850272,1.0151873 C58.3257185,1.0151873 58.6858941,1.37607619 58.6874085,1.77633016 L58.1727638,10.9257905 Z M58.0127418,13.7339175 L42.335639,13.7339175 L42.2685004,12.537473 L58.0801328,12.537473 L58.0127418,13.7339175 Z M57.8850272,16.025727 C57.8850272,16.4691556 57.525104,16.8315683 57.0831506,16.8315683 L43.2654826,16.8315683 C42.8235292,16.8315683 42.464868,16.4691556 42.4633536,15.9797587 L42.427008,15.3456 L57.9228872,15.3456 L57.8850272,16.025727 Z M44.018141,-6.91065397 L44.6294551,-0.598019048 L44.0663495,-0.598019048 L43.2667446,-6.57414603 L44.018141,-6.91065397 Z M48.0492302,-9.76627302 L48.8044126,-9.76627302 L48.2695759,2.32921905 C47.695617,1.80604444 47.327617,1.05963175 47.3235786,0.221536508 L48.0492302,-9.76627302 Z M49.8523797,2.77696508 L49.885949,3.04998095 C49.8710573,3.04845714 49.8551561,3.04744127 49.8402645,3.04591746 L49.8523797,2.77696508 Z M51.1355841,-4.8784 L52.3329723,2.06433016 C52.0924346,2.34826667 51.7993975,2.58217143 51.4662288,2.75385397 L50.525532,-4.72449524 L51.1355841,-4.8784 Z M53.0934551,-3.7792254 L54.3605059,-9.76627302 L54.6522809,-9.76627302 L53.9710519,-0.598019048 L53.8299599,-0.598019048 C53.7156225,-0.598019048 53.6096143,-0.573638095 53.5114305,-0.530209524 L52.9914853,-3.54125714 C53.0343934,-3.6144 53.0747775,-3.69135238 53.0934551,-3.7792254 Z M56.0094387,-6.42659048 L57.1369119,-6.6592254 L56.138163,-0.598019048 L55.5768241,-0.598019048 L56.0094387,-6.42659048 Z M57.8850272,-0.598019048 L57.7616033,-0.598019048 L58.9090162,-7.55141587 C58.9521767,-7.81401905 58.8645937,-8.08017778 58.6752933,-8.26405079 C58.4829641,-8.44792381 58.2144099,-8.5264 57.9589805,-8.4735746 L56.134377,-8.09770159 L56.3158529,-10.5126857 C56.3332686,-10.7369397 56.2552768,-10.9573841 56.1048461,-11.1211937 C55.952901,-11.286019 55.7406321,-11.3779556 55.516248,-11.3779556 L53.7143605,-11.3779556 C53.3367693,-11.3779556 53.010163,-11.1115429 52.9309092,-10.7397333 L52.0563413,-6.60792381 C51.9043962,-6.66608254 51.7428598,-6.69300317 51.5833427,-6.65236825 L50.2542014,-6.3184 L50.4409778,-10.5368127 C50.4503166,-10.7572571 50.3710628,-10.9708444 50.2206321,-11.1290667 C50.067425,-11.2885587 49.8591945,-11.3779556 49.6401108,-11.3779556 L47.3046486,-11.3779556 C46.8854112,-11.3779556 46.5360889,-11.0521143 46.5050436,-10.630273 L45.9744977,-3.33046349 L45.5042754,-8.17897143 C45.4785306,-8.43725714 45.3321383,-8.66684444 45.1105306,-8.79814603 C44.8874085,-8.92944762 44.6173399,-8.94290794 44.3805882,-8.83725714 L42.0668324,-7.80182857 C41.7417405,-7.65579683 41.5511781,-7.31243175 41.5993866,-6.95789206 L42.4499764,-0.596495238 C41.1316883,-0.587098413 40.0620148,0.492012698 40.0635292,1.86547302 L40.8628818,16.025727 C40.8628818,17.3588063 41.9403797,18.4432508 43.2667446,18.4432508 L57.0844126,18.4432508 C58.4092631,18.4432508 59.4882754,17.3588063 59.485499,16.0704254 L60.2891424,1.81975873 C60.2878804,0.486425397 59.2098776,-0.598019048 57.8850272,-0.598019048 Z" id="Fill-4" fill="#F44336" mask="url(#mask-4)"></path>
                <mask id="mask-6" fill="white">
                    <use xlink:href="#path-5"></use>
                </mask>
                <g id="Clip-8"></g>
                <path d="M26.4298379,15.0502647 C20.6075983,14.2737816 11.3910318,8.00916329 7.69874423,5.3511343 C5.67518867,3.89362705 3.21821264,1.38707633 2.29299259,-0.929058937 L2.29273987,-0.929310145 L2.29248715,-0.92981256 C1.50019956,-2.91284638 2.12088802,-4.29348406 3.8823695,-5.11443092 C5.51875294,-5.87634396 7.78315381,-4.22465314 8.99951111,-3.35748406 C16.0990144,1.69681546 18.4164871,2.95838068 23.4939512,5.72191691 C24.6938815,6.375057 26.0527747,7.11461256 27.669193,8.01016812 C29.6634327,9.11297005 30.8449142,10.1828638 31.2828837,11.2793855 C31.3632497,11.4811053 31.409498,11.68383 31.4395721,11.8875594 L31.4400776,11.8878106 C31.4418466,11.8986126 31.4413412,11.9094145 31.4426048,11.9202164 C31.4653499,12.0880232 31.4704044,12.258342 31.4587791,12.4284097 C31.4544828,12.5062841 31.4476593,12.5841585 31.436034,12.6627865 C31.4274414,12.7200618 31.4183434,12.7768348 31.4054545,12.8343614 C31.3743695,12.980313 31.3362083,13.127772 31.2803564,13.2779942 C30.6022998,15.1002551 27.8112235,15.2336464 26.4298379,15.0502647 M8.64974205,-8.2598029 C8.6264915,-8.41404444 8.66541089,-8.56728116 8.75891852,-8.69137778 C8.85065708,-8.81296232 8.98535861,-8.89159034 9.13800349,-8.912943 C9.40538475,-8.95112657 9.66240436,-8.8026628 9.76298824,-8.55095266 C9.77966797,-8.50900097 9.79154597,-8.46554203 9.79786405,-8.41982222 C9.9858902,-7.15398647 10.2995198,-6.35188019 10.7152497,-6.06349372 C11.0710841,-5.81605411 11.571729,-5.89593816 12.3584566,-6.05821836 C13.0701255,-6.20492367 13.9541516,-6.38654686 14.8159381,-6.08987053 C15.7105786,-5.78239227 16.2898205,-5.23300097 16.6385786,-4.36030531 C16.7859163,-3.99128116 16.8700732,-3.62351304 16.9446266,-3.29870145 C17.1088967,-2.58150338 17.2564871,-2.13988019 17.5847747,-1.91705894 C18.1384915,-1.54175459 18.7152061,-1.62691401 19.4448183,-1.73468213 C19.9722519,-1.81381256 20.5701952,-1.90349372 21.1944218,-1.78241159 C23.4459338,-1.34405411 23.8742998,0.0373371981 24.2215416,1.06025507 C24.2900296,1.26222609 24.3516941,1.44008116 24.4148749,1.59809082 C24.6349969,2.14898937 24.9001037,2.53559807 25.5427791,2.75942415 C25.7682083,2.83930821 26.2137595,2.82046763 26.8349534,2.7835401 C27.9522431,2.71722126 29.4829882,2.62728889 30.4362606,3.59067053 C30.7688444,3.92703768 31.1825525,4.39177198 31.4259251,5.00069952 C31.6104131,5.46267053 31.6796593,5.95478647 31.6387181,6.50468019 C31.6270928,6.65791691 31.5563303,6.79809082 31.4388139,6.8980715 C31.3215503,6.99729855 31.1726963,7.04628406 31.0180296,7.03397488 C30.7076854,7.00935652 30.457742,6.72348213 30.4812453,6.40922126 C30.5295155,5.76939517 30.1650885,4.95648696 29.6133935,4.399057 C29.0301081,3.81123092 27.9049839,3.87955942 26.9100122,3.93959807 C26.2246266,3.98079614 25.6324959,4.01496039 25.1667268,3.85142415 C24.0360427,3.45552077 23.5897333,2.65014879 23.3271538,1.99324058 C23.2485569,1.79654493 23.1828488,1.60411981 23.121437,1.421743 C23.0521908,1.21625507 22.9877464,1.02810048 22.9187529,0.855520773 C22.6182649,0.103404831 22.1896462,-0.410063768 20.9816288,-0.645947826 C20.5550318,-0.728595169 20.1034153,-0.66102029 19.6247573,-0.590430918 C18.8034065,-0.46733913 17.8716157,-0.327667633 16.9367922,-0.962218357 C16.5594763,-1.21819903 16.2931059,-1.5648657 16.097498,-2.05371594 C15.9658292,-2.3838029 15.8882431,-2.7219285 15.8131843,-3.0500058 C15.7353455,-3.38838261 15.6625612,-3.68983188 15.5574283,-3.95209275 C15.3426135,-4.4899285 15.0105351,-4.80243092 14.4464566,-4.99661449 C13.8849054,-5.18979324 13.2611843,-5.06117488 12.5975329,-4.92426667 C11.7387791,-4.7466628 10.8496985,-4.56227633 10.0548837,-5.116943 C9.85952854,-5.25460483 9.68717124,-5.42391884 9.53225185,-5.63543575 C9.11424749,-6.20442126 8.82740654,-7.05501063 8.64974205,-8.2598029 M13.8020122,-9.16741643 C19.016705,-5.33951304 21.1840601,-4.10055652 31.5990405,1.85256425 C31.6230492,1.86612947 33.72318,3.09152077 33.8002606,4.61308599 C32.6925743,4.01948213 31.6152148,3.43316329 30.555546,2.8518686 C30.29979,2.65843865 30.0263434,2.51273816 29.7415242,2.40471884 C27.7513281,1.30442899 25.8541342,0.22850628 24.0507007,-0.821290821 C23.5606702,-1.49779324 22.7709098,-2.11752271 21.3778989,-2.40163865 C19.8312322,-3.32909758 18.3684697,-4.23244058 16.9911277,-5.10915556 C16.5572017,-5.87006377 15.9125046,-6.39533913 15.027973,-6.69930048 C14.7800514,-6.7844599 14.535668,-6.8362087 14.2955808,-6.86534879 C12.2204697,-8.25050821 10.3829185,-9.56080773 8.81931939,-10.7766531 C9.65381176,-11.0311266 11.2570885,-11.0361507 13.8020122,-9.16741643 M32.499241,13.7258976 C32.5889577,13.4832309 32.6561821,13.2423227 32.7021778,13.0026705 C34.2458118,13.1606802 36.3752584,12.7620135 37.1518771,10.4458783 C37.795058,8.52840966 36.376522,6.55894106 35.0115634,5.42247729 C35.5556767,3.28696039 33.5460209,1.47525024 32.2472758,0.73192657 C21.8851146,-5.19004444 19.7286266,-6.42221836 14.5735765,-10.2064116 C10.8057246,-12.9724599 8.52919303,-12.2012522 7.62444357,-11.6408077 C4.56699695,-13.5901797 2.58059172,-12.3351459 1.6338902,-11.3381024 C1.25354161,-10.9394357 0.380635294,-9.7419285 1.16584662,-7.77698164 C1.40492288,-7.17885604 1.80169847,-6.50838261 2.40772898,-5.76907826 C0.651554684,-4.58036329 0.177193028,-2.72795749 1.08623878,-0.452517874 C2.10799913,2.1045256 4.76184662,4.83038068 6.93754161,6.39691208 C10.7096898,9.11171401 20.1423346,15.514999 26.2577333,16.3304193 C28.1230841,16.5783614 31.5368706,16.3090667 32.499241,13.7258976" id="Fill-7" fill="#F44336" mask="url(#mask-6)"></path>
                <mask id="mask-8" fill="white">
                    <use xlink:href="#path-7"></use>
                </mask>
                <g id="Clip-11"></g>
                <path d="M44.3090001,-23.051571 C42.7052973,-20.2870957 41.1318386,-17.5741449 39.4963539,-14.7545739 C40.3173001,-14.7545739 41.0149633,-14.7734493 41.7110888,-14.7466667 C42.0642776,-14.7331478 42.2680404,-14.8474203 42.4413028,-15.1575884 C43.0723267,-16.2883246 43.7333382,-17.4024812 44.3797404,-18.5245449 C45.0158904,-19.6284986 45.6479395,-20.7344928 46.3151024,-21.8983884 C45.6494773,-22.280742 45.0143526,-22.6462609 44.3090001,-23.051571 Z M20.8865325,-14.7517681 C21.5037159,-14.7517681 22.0260663,-14.7517681 22.547904,-14.7517681 C27.4925475,-14.7499826 32.4374473,-14.7517681 37.3820908,-14.7390145 C37.7370738,-14.7379942 37.9341726,-14.8558377 38.1061535,-15.1606493 C38.8927547,-16.5574261 39.7452264,-17.9190029 40.483386,-19.3402667 C40.7881331,-19.9266783 40.9801058,-20.6225159 41.0247029,-21.2821333 C41.176692,-23.526771 40.0773982,-25.2803942 38.630298,-26.8669449 C38.6013355,-26.8985739 38.5331583,-26.8942377 38.6287602,-26.8705159 C37.9623662,-26.1795246 37.4182299,-25.4709333 36.7362012,-24.9373217 C35.1668434,-23.7088928 33.2568556,-23.4385159 31.3396913,-23.2178783 C29.771615,-23.037542 28.2260935,-22.7334957 26.9007384,-21.8111536 C26.4637377,-21.5071072 26.1195196,-21.0711884 25.6453546,-20.6105275 C26.6731392,-20.6105275 27.5048502,-20.650829 28.3311787,-20.6010899 C29.587844,-20.5253333 30.7835087,-20.1978203 31.8653737,-19.5313159 C32.3367193,-19.2410435 32.474099,-18.8183884 32.2359913,-18.4577159 C32.0076232,-18.1123478 31.6231651,-18.0804638 31.1341344,-18.3327304 C28.469071,-19.7080812 25.7873478,-19.5346319 23.1740581,-18.2569739 C21.8087193,-17.5891942 21.1333546,-16.3339826 20.8865325,-14.7517681 Z M20.2073232,-13.3162203 C20.1934828,-13.2113855 20.170159,-13.1412406 20.1775918,-13.0744116 C20.31369,-11.787571 20.4659354,-10.5025159 20.588193,-9.2144 C20.6612401,-8.4473971 20.766069,-7.74033623 21.5816327,-7.34191304 C21.7805257,-7.24498551 21.9204684,-6.87589565 21.9517377,-6.61572174 C22.2339299,-4.24023188 22.4945925,-1.86193623 22.7452592,0.51737971 C23.0169429,3.09565217 23.2645339,5.67647536 23.5346798,8.2550029 C23.8519858,11.279142 24.1874896,14.3014957 24.5006948,17.3261449 C24.5391406,17.6975304 24.6929238,17.8041507 25.0535455,17.8033855 C29.6350042,17.7942029 34.216463,17.7975188 38.7979217,17.7975188 L40.601799,17.7975188 C40.6894555,16.9384348 40.7630151,16.1711768 40.8470833,15.4051942 C41.094418,13.1506087 41.3491855,10.8970435 41.5942135,8.6422029 C41.8256573,6.5154087 42.0483866,4.3875942 42.2747043,2.26003478 C42.5543335,-0.369507246 42.8398577,-2.99853913 43.1105162,-5.62884638 C43.1994541,-6.49226667 43.2143198,-7.36078841 44.1816164,-7.81481739 C44.3515468,-7.89465507 44.459964,-8.22242319 44.4932837,-8.45071304 C44.6017009,-9.19935072 44.6650083,-9.95462029 44.7408747,-10.7075942 C44.8269933,-11.5613217 44.9082421,-12.4153043 44.9961549,-13.3162203 L20.2073232,-13.3162203 Z M18.735874,-13.3529507 C18.1955823,-13.3529507 17.6932237,-13.3452986 17.1913778,-13.3549913 C16.6280185,-13.3659594 16.3427506,-13.6041971 16.3419817,-14.0406261 C16.3414691,-14.4841971 16.6254555,-14.7308522 17.1859954,-14.7425855 C17.7836995,-14.7553391 18.3819163,-14.747942 18.9798768,-14.747687 C19.2851365,-14.747687 19.4648065,-14.8369623 19.5286266,-15.1922783 C19.9574255,-17.5733797 21.3332728,-19.1844174 23.6095209,-20.0179942 C23.9639913,-20.1478261 24.1516068,-20.3194899 24.2815536,-20.6857739 C24.9423089,-22.5506087 26.4601494,-23.4882551 28.2409592,-23.9746783 C29.7116395,-24.3764174 31.2428079,-24.5610899 32.749371,-24.8286609 C33.9024889,-25.0334841 35.0007575,-25.3752812 35.9503689,-26.0797913 C36.7149279,-26.6468174 37.2459926,-27.3592348 37.3928556,-28.3410087 C37.4307888,-28.5948058 37.680174,-28.9554783 37.896752,-29.0090435 C38.1494691,-29.0717913 38.5441794,-28.9302261 38.7543498,-28.7414725 C40.5671978,-27.1148754 41.9084439,-25.1911188 42.3920922,-22.6113159 C42.7378481,-23.1910957 43.019784,-23.6601739 43.2986443,-24.1312928 C43.6943798,-24.8003478 43.9960513,-24.8763594 44.6598822,-24.4889043 C45.5492619,-23.9698319 46.4417172,-23.456371 47.3351978,-22.9446957 C48.0846348,-22.5154087 48.1648584,-22.2486029 47.7424671,-21.5178203 C46.5796095,-19.5052986 45.4144453,-17.4940522 44.2508188,-15.4817855 C44.1352251,-15.2820638 44.0242449,-15.0795362 43.8602094,-14.7882435 C44.1272796,-14.7708986 44.313101,-14.7481971 44.4986661,-14.747942 C45.5856573,-14.7474319 46.6726484,-14.7561043 47.7596395,-14.751513 C47.9741671,-14.7507478 48.2517459,-14.7811014 48.3883566,-14.6658087 C48.5951951,-14.4913391 48.8394541,-14.1870377 48.8153614,-13.9648696 C48.7917813,-13.7493333 48.4772946,-13.449113 48.2430315,-13.3968232 C47.8101317,-13.3004058 47.3421181,-13.3394319 46.8902517,-13.357542 C46.5101508,-13.3725913 46.3981453,-13.2044986 46.3638004,-12.8494377 C46.1959204,-11.129229 46.0254773,-9.40825507 45.8006975,-7.69493333 C45.7607138,-7.39012174 45.5228624,-7.02434783 45.2647629,-6.85370435 C44.7970056,-6.54481159 44.5773519,-6.16602899 44.5242967,-5.6313971 C44.2692728,-3.06970435 44.0093791,-0.508266667 43.7376954,2.05164058 C43.4383307,4.87835362 43.1241003,7.70353623 42.8162776,10.529229 C42.5476695,12.9957797 42.2793178,15.4625855 42.0112224,17.9291362 C41.995844,18.072487 41.9896927,18.217113 41.9691883,18.3596986 C41.8753805,19.0170203 41.6798195,19.1891942 41.0075305,19.1894493 C36.7848993,19.1909797 32.5620117,19.1899594 28.3391242,19.1899594 C26.9437977,19.1899594 25.5482149,19.1925101 24.152632,19.1886841 C23.5141753,19.1868986 23.2747861,18.9552928 23.2081467,18.3354667 C22.8529074,15.0264116 22.4871596,11.7183768 22.1362776,8.40881159 C21.7946225,5.18826667 21.4696273,1.96593623 21.1302789,-1.25486377 C20.9626552,-2.84473043 20.7916995,-4.43434203 20.5892183,-6.02012754 C20.5620499,-6.23183768 20.3839177,-6.50502029 20.1980963,-6.60194783 C19.5127357,-6.95981449 19.3422926,-7.52964638 19.2815482,-8.24308406 C19.1377609,-9.92528696 18.9270778,-11.6018783 18.735874,-13.3529507 Z" id="Fill-10" fill="#F44336" mask="url(#mask-8)"></path>
                <mask id="mask-10" fill="white">
                    <use xlink:href="#path-9"></use>
                </mask>
                <g id="Clip-14"></g>
                <path d="M32.5029333,-7.44766609 C35.2002912,-7.44766609 37.8976491,-7.44792116 40.595007,-7.44741101 C40.7216218,-7.44741101 40.848493,-7.44052406 40.9751078,-7.4364429 C41.3895536,-7.42292406 41.6233042,-7.17091246 41.6561112,-6.79978203 C41.6896873,-6.41717333 41.4426089,-6.16312116 41.0758359,-6.05777623 C40.9405066,-6.01900522 40.7890301,-6.02971826 40.6449865,-6.02971826 C35.17748,-6.02869797 29.7099736,-6.0284429 24.2424671,-6.02971826 C23.6160567,-6.02971826 23.3295073,-6.22637913 23.2872169,-6.66944 C23.2392878,-7.1696371 23.4991815,-7.43414725 24.0850956,-7.43771826 C25.6600922,-7.44766609 27.2348324,-7.44588058 28.8100853,-7.44715594 C30.0411201,-7.44817623 31.2718986,-7.44741101 32.5029333,-7.44766609" id="Fill-13" fill="#F44336" mask="url(#mask-10)"></path>
                <mask id="mask-12" fill="white">
                    <use xlink:href="#path-11"></use>
                </mask>
                <g id="Clip-17"></g>
                <path d="M27.0684646,14.239462 C27.0571872,14.9340243 27.5869704,15.5015606 28.2607973,15.5158446 C28.9195021,15.5301287 29.5074667,14.9580012 29.5166937,14.2935374 C29.5264333,13.5862214 29.0122847,13.0454678 28.3161592,13.0311838 C27.6051681,13.0166446 27.0799984,13.5250041 27.0684646,14.239462 M30.9222724,14.3147084 C30.910995,15.7295954 29.6979016,16.9235896 28.2766882,16.9189983 C26.8380461,16.9141519 25.6223896,15.6852128 25.6336671,14.246349 C25.6446882,12.778662 26.8357393,11.6178272 28.3164155,11.631091 C29.7801756,11.6440997 30.9340624,12.8324823 30.9222724,14.3147084" id="Fill-16" fill="#F44336" mask="url(#mask-12)"></path>
                <mask id="mask-14" fill="white">
                    <use xlink:href="#path-13"></use>
                </mask>
                <g id="Clip-20"></g>
                <path d="M36.5875441,14.255149 C36.5813928,13.5730852 36.0354623,13.030291 35.3534337,13.0277403 C34.6939599,13.0254446 34.103176,13.5985925 34.0944616,14.2487722 C34.0854909,14.9165519 34.6960104,15.5197983 35.3736818,15.5134214 C36.0216218,15.5070446 36.5936954,14.9140012 36.5875441,14.255149 M37.9938918,14.2630562 C37.9990179,15.7011548 36.7749033,16.9249925 35.3372864,16.9193809 C33.919405,16.9137693 32.6811937,15.6651896 32.6832442,14.2431606 C32.6850383,12.8315896 33.8945434,11.6386157 35.3290847,11.632749 C36.8036095,11.6268823 37.9887656,12.7968997 37.9938918,14.2630562" id="Fill-19" fill="#F44336" mask="url(#mask-14)"></path>
                <mask id="mask-16" fill="white">
                    <use xlink:href="#path-15"></use>
                </mask>
                <g id="Clip-23"></g>
                <path d="M31.1210372,7.50432464 C30.4054326,7.4908058 29.8533508,7.98794203 29.8313085,8.66566957 C29.8084973,9.35717101 30.3303351,9.9094029 31.0238975,9.92802319 C31.7446282,9.9474087 32.3318239,9.39721739 32.3249036,8.70928696 C32.3182397,8.0483942 31.7874312,7.51682319 31.1210372,7.50432464 M28.4252172,8.72994783 C28.4165028,7.26889275 29.5973017,6.09045797 31.0700324,6.09071304 C32.5437884,6.09096812 33.7340706,7.2694029 33.7327891,8.72663188 C33.7320202,10.1226435 32.5117502,11.3393391 31.1002765,11.3523478 C29.6459997,11.3656116 28.4341879,10.177229 28.4252172,8.72994783" id="Fill-22" fill="#F44336" mask="url(#mask-16)"></path>
                <mask id="mask-18" fill="white">
                    <use xlink:href="#path-17"></use>
                </mask>
                <g id="Clip-26"></g>
                <path d="M36.4508821,8.72201507 C36.454214,9.42167884 36.9819468,9.94483246 37.6801227,9.93998609 C38.3598446,9.93539478 38.9162836,9.3803571 38.9147457,8.70824116 C38.9132079,8.02668754 38.3706094,7.50302377 37.6670511,7.50429913 C36.9486271,7.50531942 36.4475501,8.00704696 36.4508821,8.72201507 M37.6647444,6.09502377 C39.1405508,6.09017739 40.3072529,7.2285658 40.3126353,8.67865275 C40.3185303,10.1726122 39.1789966,11.3217136 37.6796101,11.333702 C36.1897069,11.3454354 35.0296687,10.1866412 35.0368453,8.69344696 C35.0440218,7.22499478 36.1820177,6.09987014 37.6647444,6.09502377" id="Fill-25" fill="#F44336" mask="url(#mask-18)"></path>
                <mask id="mask-20" fill="white">
                    <use xlink:href="#path-19"></use>
                </mask>
                <g id="Clip-29"></g>
                <path d="M39.5583286,3.86033391 C39.5252652,4.02511072 39.4916892,4.33068754 39.4007007,4.61840928 C39.2484554,5.09845565 38.893985,5.30889043 38.5164472,5.18594551 C38.0784213,5.04336 37.9274574,4.70793971 38.0712447,4.19753971 C38.346773,3.22010203 37.6849925,2.34418319 36.7481963,2.53242667 C36.4050034,2.60129623 36.0574533,2.89437449 35.8193456,3.17546435 C35.4607744,3.59913971 35.0978459,3.76952812 34.7279973,3.52924986 C34.369426,3.2963687 34.3171397,2.88952812 34.5870293,2.43473391 C35.2275365,1.35577739 36.4513947,0.856345507 37.6544922,1.18283826 C38.7266176,1.47387594 39.5552529,2.57961507 39.5583286,3.86033391" id="Fill-28" fill="#F44336" mask="url(#mask-20)"></path>
                <mask id="mask-22" fill="white">
                    <use xlink:href="#path-21"></use>
                </mask>
                <g id="Clip-32"></g>
                <path d="M24.0808922,6.22398841 C24.0875561,5.29042319 24.681672,4.47113043 25.4264954,4.23212754 C26.3227954,3.94466087 27.2613857,4.25253333 27.7888622,4.98994783 C28.0387599,5.33914203 28.0436297,5.6794087 27.7181219,5.94672464 C27.3882569,6.21761159 27.0207149,6.21072464 26.7034089,5.87989565 C26.6536856,5.82786087 26.6172903,5.72863768 26.5639787,5.72047536 C26.3002405,5.68017391 25.965762,5.55722899 25.7876297,5.66946087 C25.6271825,5.77046957 25.5379883,6.1620058 25.5910435,6.38442899 C25.7186836,6.9188058 25.6305145,7.31467826 25.2263209,7.47129275 C24.8264845,7.62637681 24.4297238,7.39655652 24.2441587,6.87314783 C24.1547081,6.62215652 24.112674,6.35433043 24.0808922,6.22398841" id="Fill-31" fill="#F44336" mask="url(#mask-22)"></path>
            </g>
        </g>
    </g>
</svg>