<svg xmlns="http://www.w3.org/2000/svg" width="495" height="495" viewBox="0 0 495 495">
  <g id="clock" transform="translate(0 0)">
    <g id="Group_2" data-name="Group 2" transform="translate(0 0)">
      <path id="Path_2" data-name="Path 2" d="M247.5,495A247.5,247.5,0,0,1,72.49,72.49,247.5,247.5,0,0,1,422.51,422.51,245.887,245.887,0,0,1,247.5,495Zm0-466A218.5,218.5,0,0,0,93,402,218.5,218.5,0,1,0,402,93,217.065,217.065,0,0,0,247.5,29Z" transform="translate(0 0)" fill="#e72628"/>
    </g>
    <g id="Group_3" data-name="Group 3" transform="translate(232.5 60.036)">
      <path id="Path_3" data-name="Path 3" d="M241,60.036h30v40.032H241Z" transform="translate(-241 -60.036)" fill="#e72628"/>
    </g>
    <g id="Group_4" data-name="Group 4" transform="translate(342.532 102.928)">
      <path id="Path_4" data-name="Path 4" d="M0,0H40.032V30H0Z" transform="translate(0 28.303) rotate(-45)" fill="#e72628"/>
    </g>
    <g id="Group_5" data-name="Group 5" transform="translate(394.932 232.5)">
      <path id="Path_5" data-name="Path 5" d="M411.932,241h40.032v30H411.932Z" transform="translate(-411.932 -241)" fill="#e72628"/>
    </g>
    <g id="Group_6" data-name="Group 6" transform="translate(342.506 342.585)">
      <path id="Path_6" data-name="Path 6" d="M0,0H30V40.032H0Z" transform="translate(0 21.21) rotate(-45)" fill="#e72628"/>
    </g>
    <g id="Group_7" data-name="Group 7" transform="translate(232.5 394.932)">
      <path id="Path_7" data-name="Path 7" d="M241,411.932h30v40.032H241Z" transform="translate(-241 -411.932)" fill="#e72628"/>
    </g>
    <g id="Group_8" data-name="Group 8" transform="translate(102.85 342.559)">
      <path id="Path_8" data-name="Path 8" d="M0,0H40.032V30H0Z" transform="translate(0 28.303) rotate(-45)" fill="#e72628"/>
    </g>
    <g id="Group_9" data-name="Group 9" transform="translate(60.036 232.5)">
      <path id="Path_9" data-name="Path 9" d="M60.036,241h40.032v30H60.036Z" transform="translate(-60.036 -241)" fill="#e72628"/>
    </g>
    <g id="Group_10" data-name="Group 10" transform="translate(102.876 102.903)">
      <path id="Path_10" data-name="Path 10" d="M0,0H30V40.032H0Z" transform="translate(0 21.21) rotate(-45)" fill="#e72628"/>
    </g>
    <g id="Group_11" data-name="Group 11" transform="translate(230.525 143.583)">
      <path id="Path_11" data-name="Path 11" d="M361.892,271H241V150.108h30V241h90.892Z" transform="translate(-241 -150.108)" fill="#e72628"/>
    </g>
  </g>
</svg>
