<svg xmlns="http://www.w3.org/2000/svg" width="490" height="489.975" viewBox="0 0 490 489.975">
  <g id="tag" transform="translate(0 0.001)">
    <path id="Path_12" data-name="Path 12" d="M437.251,0H251.291a14.358,14.358,0,0,0-10.15,4.206L15.421,229.92a52.812,52.812,0,0,0,0,74.592l170.063,170.06a52.391,52.391,0,0,0,37.291,15.4h0a52.381,52.381,0,0,0,37.3-15.406L485.791,248.85A14.358,14.358,0,0,0,490,238.7l0-185.96A52.811,52.811,0,0,0,437.251,0Zm24.034,232.757L239.774,454.268a24.148,24.148,0,0,1-33.99,0L35.721,284.212a24.071,24.071,0,0,1,0-33.993L257.236,28.711H437.252A24.064,24.064,0,0,1,461.29,52.745Zm0,0" fill="#e72628"/>
    <path id="Path_13" data-name="Path 13" d="M379.785,85.078a47.132,47.132,0,1,0,33.328,13.809,46.827,46.827,0,0,0-33.328-13.809ZM391.9,144.324a17.126,17.126,0,1,1,5.02-12.113A17.01,17.01,0,0,1,391.9,144.324Zm0,0" transform="translate(-17.519 -4.481)" fill="#e72628"/>
  </g>
</svg>
