<svg xmlns="http://www.w3.org/2000/svg" width="341.333" height="469.334" viewBox="0 0 341.333 469.334">
  <g id="food" transform="translate(-64)">
    <g id="Group_1" data-name="Group 1">
      <path id="Path_1" data-name="Path 1" d="M394.667,64h-24.32l-18.9-56.7A10.666,10.666,0,0,0,341.333,0H128a10.666,10.666,0,0,0-10.112,7.3L98.987,64H74.667A10.667,10.667,0,0,0,64,74.667v64a10.667,10.667,0,0,0,10.667,10.667H96.683l20,300.085a21.408,21.408,0,0,0,21.333,19.915H331.349a21.408,21.408,0,0,0,21.333-19.915L372.65,149.334h22.016a10.667,10.667,0,0,0,10.667-10.667v-64A10.666,10.666,0,0,0,394.667,64ZM135.691,21.333H333.643L347.861,64H121.472ZM331.349,448H137.984L118.069,149.333h233.2ZM384,128H85.333V85.333H384Z" fill="#e72628"/>
    </g>
  </g>
</svg>
