<?xml version="1.0" encoding="UTF-8"?>
<svg width="64px" height="64px" viewBox="0 0 64 64" version="1.1" xmlns="http://www.w3.org/2000/svg" xmlns:xlink="http://www.w3.org/1999/xlink">
    <!-- Generator: Sketch 49.2 (51160) - http://www.bohemiancoding.com/sketch -->
    <title>love it copy</title>
    <desc>Created with Sketch.</desc>
    <defs></defs>
    <g id="love-it-copy" stroke="none" stroke-width="1" fill="none" fill-rule="evenodd">
        <circle id="Oval" fill="#E33322" cx="32" cy="32" r="26"></circle>
        <path d="M27,30 L38,30 L38,34.5 C38,37.5375661 35.5375661,40 32.5,40 L32.5,40 C29.4624339,40 27,37.5375661 27,34.5 L27,30 Z" id="Rectangle" fill="#D90000"></path>
        <path d="M29,32 L29,34.5 C29,36.4329966 30.5670034,38 32.5,38 C34.4329966,38 36,36.4329966 36,34.5 L36,32 L29,32 Z M27,30 L38,30 L38,34.5 C38,37.5375661 35.5375661,40 32.5,40 C29.4624339,40 27,37.5375661 27,34.5 L27,30 Z" id="Rectangle" fill="#FFFFFF" fill-rule="nonzero"></path>
        <path d="M18.4860552,54.2164181 C10.9989399,49.6523534 6,41.4099592 6,32 C6,17.6405965 17.6405965,6 32,6 C38.7465961,6 44.8930213,8.5696375 49.5139448,12.7835819 C45.5758767,10.3829781 40.9494443,9 36,9 C21.6405965,9 10,20.6405965 10,35 C10,42.6128074 13.2718405,49.4614355 18.4860552,54.2164181 Z" id="Combined-Shape" fill="#FF5444"></path>
        <g id="like" transform="translate(6.000000, 8.000000)" fill-rule="nonzero">
            <path d="M18.42,-0.9995 C22.4446616,-0.9995 25.5525324,2.340023 25.9519676,6.64376281 C25.9596331,6.69289365 25.9674641,6.75386735 25.9746451,6.82647329 C26.0429836,7.51743082 25.9861358,8.43720164 25.7207517,9.56124126 C25.156016,11.9536285 23.834479,14.1341293 21.9642458,15.8291786 L12.4192961,24.3452508 L11.7529506,23.7405063 L3.02956022,15.8235591 C1.16532215,14.1344582 -0.156442047,11.9534417 -0.721242357,9.56078101 C-0.986635756,8.43670164 -1.04348358,7.51693082 -0.97514514,6.82597329 C-0.967964124,6.75336735 -0.960133136,6.69239365 -0.952467567,6.64326281 C-0.553032354,2.339523 2.55483838,-1 6.5795,-1 C8.96568011,-1 11.0679684,0.152353742 12.4339711,2.04512689 C13.8309988,0.166343918 16.020059,-0.9995 18.42,-0.9995 Z" id="Shape" fill="#FFFFFF"></path>
            <path d="M12.4250011,4.063 C13.4340011,1.6715 15.7390011,0.0005 18.4200011,0.0005 C22.0315011,0.0005 24.6325011,3.09 24.9595011,6.772 C24.9595011,6.772 25.1360011,7.686 24.7475011,9.3315 C24.2185011,11.5725 22.9750011,13.5635 21.2985011,15.083 L12.4250011,23 L3.70100109,15.0825 C2.02450109,13.5635 0.781001089,11.572 0.252001089,9.331 C-0.136498911,7.6855 0.0400010885,6.7715 0.0400010885,6.7715 C0.367001089,3.0895 2.96800109,0 6.57950109,0 C9.26100109,0 11.4160011,1.6715 12.4250011,4.063 Z" id="Shape" fill="#E33322"></path>
            <path d="M3,8.039 C2.7235,8.039 2.5,7.8155 2.5,7.539 C2.5,4.782 4.743,2.539 7.5,2.539 C7.7765,2.539 8,2.7625 8,3.039 C8,3.3155 7.7765,3.539 7.5,3.539 C5.2945,3.539 3.5,5.3335 3.5,7.539 C3.5,7.8155 3.2765,8.039 3,8.039 Z" id="Shape" fill="#ED7161"></path>
        </g>
        <g id="like-copy-2" transform="translate(34.000000, 8.000000)" fill-rule="nonzero">
            <path d="M18.42,-0.9995 C22.4446616,-0.9995 25.5525324,2.340023 25.9519676,6.64376281 C25.9596331,6.69289365 25.9674641,6.75386735 25.9746451,6.82647329 C26.0429836,7.51743082 25.9861358,8.43720164 25.7207517,9.56124126 C25.156016,11.9536285 23.834479,14.1341293 21.9642458,15.8291786 L12.4192961,24.3452508 L11.7529506,23.7405063 L3.02956022,15.8235591 C1.16532215,14.1344582 -0.156442047,11.9534417 -0.721242357,9.56078101 C-0.986635756,8.43670164 -1.04348358,7.51693082 -0.97514514,6.82597329 C-0.967964124,6.75336735 -0.960133136,6.69239365 -0.952467567,6.64326281 C-0.553032354,2.339523 2.55483838,-1 6.5795,-1 C8.96568011,-1 11.0679684,0.152353742 12.4339711,2.04512689 C13.8309988,0.166343918 16.020059,-0.9995 18.42,-0.9995 Z" id="Shape" fill="#FFFFFF"></path>
            <path d="M12.4250011,4.063 C13.4340011,1.6715 15.7390011,0.0005 18.4200011,0.0005 C22.0315011,0.0005 24.6325011,3.09 24.9595011,6.772 C24.9595011,6.772 25.1360011,7.686 24.7475011,9.3315 C24.2185011,11.5725 22.9750011,13.5635 21.2985011,15.083 L12.4250011,23 L3.70100109,15.0825 C2.02450109,13.5635 0.781001089,11.572 0.252001089,9.331 C-0.136498911,7.6855 0.0400010885,6.7715 0.0400010885,6.7715 C0.367001089,3.0895 2.96800109,0 6.57950109,0 C9.26100109,0 11.4160011,1.6715 12.4250011,4.063 Z" id="Shape" fill="#E33322"></path>
            <path d="M3,8.039 C2.7235,8.039 2.5,7.8155 2.5,7.539 C2.5,4.782 4.743,2.539 7.5,2.539 C7.7765,2.539 8,2.7625 8,3.039 C8,3.3155 7.7765,3.539 7.5,3.539 C5.2945,3.539 3.5,5.3335 3.5,7.539 C3.5,7.8155 3.2765,8.039 3,8.039 Z" id="Shape" fill="#ED7161"></path>
        </g>
    </g>
</svg>