<?xml version="1.0" encoding="UTF-8"?>
<svg width="64px" height="64px" viewBox="0 0 64 64" version="1.1" xmlns="http://www.w3.org/2000/svg" xmlns:xlink="http://www.w3.org/1999/xlink">
    <!-- Generator: Sketch 49.2 (51160) - http://www.bohemiancoding.com/sketch -->
    <title>It was good Copy</title>
    <desc>Created with Sketch.</desc>
    <defs></defs>
    <g id="It-was-good-Copy" stroke="none" stroke-width="1" fill="none" fill-rule="evenodd">
        <circle id="Oval" fill="#E33322" cx="32" cy="32" r="26"></circle>
        <path d="M18.4860552,54.2164181 C10.9989399,49.6523534 6,41.4099592 6,32 C6,17.6405965 17.6405965,6 32,6 C38.7465961,6 44.8930213,8.5696375 49.5139448,12.7835819 C45.5758767,10.3829781 40.9494443,9 36,9 C21.6405965,9 10,20.6405965 10,35 C10,42.6128074 13.2718405,49.4614355 18.4860552,54.2164181 Z" id="Combined-Shape" fill="#FF5444"></path>
        <g id="Group" transform="translate(9.499862, 48.824296) rotate(-23.000000) translate(-9.499862, -48.824296) translate(2.999862, 39.824296)" fill-rule="nonzero">
            <path d="M10.6472822,6.81168468 C12.0444289,7.7452989 13,9.63583077 13,11.8160747 C13,14.9226764 11.0599006,17.4410747 8.66666667,17.4410747 C6.27343275,17.4410747 4.33333333,14.9226764 4.33333333,11.8160747 C4.33333333,9.88686244 5.08152497,8.18448851 6.22179838,7.17121092 L4.96680536,2.90843307 C4.61694842,1.72008987 5.26099648,0.462224006 6.40532697,0.0989110304 C7.54965746,-0.264401946 8.7609357,0.404417197 9.11079264,1.5927604 L10.6472822,6.81168468 Z" id="Combined-Shape" fill="#FFFFFF"></path>
            <path d="M10.06106,7.75774236 L9.72731818,7.53472632 L8.07479582,1.92167856 C7.89986735,1.32750696 7.29422823,0.993097393 6.72206298,1.17475388 C6.14989774,1.35641037 5.82787371,1.9853433 6.00280218,2.5795149 L7.46524271,7.54692031 L6.9261445,8.02597747 C6.00153879,8.84760696 5.41666667,10.2555727 5.41666667,11.8160747 C5.41666667,14.3496298 6.93155753,16.3160747 8.66666667,16.3160747 C10.4017758,16.3160747 11.9166667,14.3496298 11.9166667,11.8160747 C11.9166667,10.0543382 11.1704129,8.49904432 10.06106,7.75774236 Z M10.6472822,6.81168468 C12.0444289,7.7452989 13,9.63583077 13,11.8160747 C13,14.9226764 11.0599006,17.4410747 8.66666667,17.4410747 C6.27343275,17.4410747 4.33333333,14.9226764 4.33333333,11.8160747 C4.33333333,9.88686244 5.08152497,8.18448851 6.22179838,7.17121092 L4.96680536,2.90843307 C4.61694842,1.72008987 5.26099648,0.462224006 6.40532697,0.0989110304 C7.54965746,-0.264401946 8.7609357,0.404417197 9.11079264,1.5927604 L10.6472822,6.81168468 Z" id="Combined-Shape" fill="#E33322"></path>
            <path d="M2.16666667,12.375 L6.5,12.375 C7.69661696,12.375 8.66666667,13.3823593 8.66666667,14.625 C8.66666667,15.8676407 7.69661696,16.875 6.5,16.875 L2.16666667,16.875 C0.970049709,16.875 0,15.8676407 0,14.625 C0,13.3823593 0.970049709,12.375 2.16666667,12.375 Z" id="Rectangle-Copy" fill="#FFFFFF"></path>
            <path d="M2.16666667,9 L6.5,9 C7.69661696,9 8.66666667,10.0073593 8.66666667,11.25 C8.66666667,12.4926407 7.69661696,13.5 6.5,13.5 L2.16666667,13.5 C0.970049709,13.5 0,12.4926407 0,11.25 C0,10.0073593 0.970049709,9 2.16666667,9 Z" id="Rectangle-Copy" fill="#FFFFFF"></path>
            <path d="M2.16666667,5.625 L6.5,5.625 C7.69661696,5.625 8.66666667,6.63235931 8.66666667,7.875 C8.66666667,9.11764069 7.69661696,10.125 6.5,10.125 L2.16666667,10.125 C0.970049709,10.125 0,9.11764069 0,7.875 C0,6.63235931 0.970049709,5.625 2.16666667,5.625 Z" id="Rectangle-Copy" fill="#FFFFFF"></path>
            <path d="M2.16666667,13.5 C1.56835819,13.5 1.08333333,14.0036797 1.08333333,14.625 C1.08333333,15.2463203 1.56835819,15.75 2.16666667,15.75 L6.5,15.75 C7.09830848,15.75 7.58333333,15.2463203 7.58333333,14.625 C7.58333333,14.0036797 7.09830848,13.5 6.5,13.5 L2.16666667,13.5 Z M2.16666667,12.375 L6.5,12.375 C7.69661696,12.375 8.66666667,13.3823593 8.66666667,14.625 C8.66666667,15.8676407 7.69661696,16.875 6.5,16.875 L2.16666667,16.875 C0.970049709,16.875 0,15.8676407 0,14.625 C0,13.3823593 0.970049709,12.375 2.16666667,12.375 Z" id="Rectangle" fill="#E33322"></path>
            <path d="M2.16666667,6.75 C1.56835819,6.75 1.08333333,7.25367966 1.08333333,7.875 C1.08333333,8.49632034 1.56835819,9 2.16666667,9 L6.5,9 C7.09830848,9 7.58333333,8.49632034 7.58333333,7.875 C7.58333333,7.25367966 7.09830848,6.75 6.5,6.75 L2.16666667,6.75 Z M2.16666667,5.625 L6.5,5.625 C7.69661696,5.625 8.66666667,6.63235931 8.66666667,7.875 C8.66666667,9.11764069 7.69661696,10.125 6.5,10.125 L2.16666667,10.125 C0.970049709,10.125 0,9.11764069 0,7.875 C0,6.63235931 0.970049709,5.625 2.16666667,5.625 Z" id="Rectangle" fill="#E33322"></path>
            <path d="M2.16666667,10.125 C1.56835819,10.125 1.08333333,10.6286797 1.08333333,11.25 C1.08333333,11.8713203 1.56835819,12.375 2.16666667,12.375 L6.5,12.375 C7.09830848,12.375 7.58333333,11.8713203 7.58333333,11.25 C7.58333333,10.6286797 7.09830848,10.125 6.5,10.125 L2.16666667,10.125 Z M2.16666667,9 L6.5,9 C7.69661696,9 8.66666667,10.0073593 8.66666667,11.25 C8.66666667,12.4926407 7.69661696,13.5 6.5,13.5 L2.16666667,13.5 C0.970049709,13.5 0,12.4926407 0,11.25 C0,10.0073593 0.970049709,9 2.16666667,9 Z" id="Rectangle-Copy" fill="#E33322"></path>
        </g>
        <path d="M18.4374719,27.4583916 C17.9885659,27.9828672 17.1994841,28.0441284 16.6750085,27.5952224 C16.1505329,27.1463163 16.0892717,26.3572345 16.5381777,25.8327589 C17.1013306,25.174804 18.1042791,24.3125164 19.5210064,23.5817817 C21.8886685,22.3605637 24.5874289,22.0097148 27.5107141,22.9034528 C28.1709048,23.1052933 28.542471,23.8041077 28.3406304,24.4642983 C28.1387899,25.124489 27.4399755,25.4960552 26.7797849,25.2942147 C24.5171808,24.6024672 22.4831449,24.8668994 20.66702,25.8036397 C20.0267144,26.1339033 19.4607342,26.5258801 18.9782652,26.9406841 C18.6975088,27.1820652 18.5145439,27.3683452 18.4374719,27.4583916 Z M45.195207,27.4583916 C45.118135,27.3683452 44.9351701,27.1820652 44.6544137,26.9406841 C44.1719447,26.5258801 43.6059646,26.1339033 42.965659,25.8036397 C41.149534,24.8668994 39.1154982,24.6024672 36.8528941,25.2942147 C36.1927034,25.4960552 35.4938891,25.124489 35.2920485,24.4642983 C35.090208,23.8041077 35.4617742,23.1052933 36.1219648,22.9034528 C39.0452501,22.0097148 41.7440104,22.3605637 44.1116726,23.5817817 C45.5283999,24.3125164 46.5313483,25.174804 47.0945012,25.8327589 C47.5434073,26.3572345 47.4821461,27.1463163 46.9576704,27.5952224 C46.4331948,28.0441284 45.6441131,27.9828672 45.195207,27.4583916 Z" id="Combined-Shape" fill="#FFFFFF" fill-rule="nonzero" transform="translate(31.816339, 25.149404) rotate(9.000000) translate(-31.816339, -25.149404) "></path>
        <path d="M43.701679,40.2005913 C43.3012453,39.8866799 42.8773021,39.6200745 42.4295922,39.3999354 C41.9339792,39.1562425 41.7297577,38.5569166 41.9734507,38.0613037 C42.2171437,37.5656907 42.8164695,37.3614692 43.3120824,37.6051622 C44.9640779,38.4174486 46.3423415,39.7123275 47.4405024,41.4690242 C47.7332559,41.9373337 47.5909397,42.5542973 47.1226302,42.8470508 C46.6543207,43.1398044 46.0373571,42.9974881 45.7446036,42.5291786 C45.5451569,42.2101294 45.3362666,41.9111485 45.1178652,41.6320155 C41.7543122,45.7800422 37.3713172,47.2847975 32.1298541,46.0879606 C31.5914276,45.9650162 31.2546128,45.4288691 31.3775572,44.8904426 C31.5005017,44.3520161 32.0366488,44.0152013 32.5750753,44.1381458 C37.1432506,45.1812439 40.795954,43.8890742 43.701679,40.2005913 Z" id="Combined-Shape" fill="#FFFFFF" fill-rule="nonzero"></path>
    </g>
</svg>