<?xml version="1.0" encoding="utf-8"?>
<!-- Generator: Adobe Illustrator 23.0.0, SVG Export Plug-In . SVG Version: 6.00 Build 0)  -->
<svg version="1.1" id="Layer_1" xmlns="http://www.w3.org/2000/svg" xmlns:xlink="http://www.w3.org/1999/xlink" x="0px" y="0px"
	 viewBox="0 0 2262 716" style="enable-background:new 0 0 2262 716;" xml:space="preserve">
<style type="text/css">
	.st0{fill:#E3322B;}
	.st1{fill:#FFFFFF;}
</style>
<path class="st0" d="M2043.61,647.86H93V208.48c0-76.98,62.41-139.39,139.39-139.39H2183v439.38
	C2183,585.45,2120.59,647.86,2043.61,647.86z"/>
<g>
	<path class="st1" d="M804.6,466.93v-85.03h-80.86v85.03h-63.53V242.31h63.53v85.35h80.86v-85.35h62.89v224.62H804.6z"/>
	<path class="st1" d="M1025.37,472.06c-73.48,0-124.82-42.68-124.82-117.76c0-73.8,51.34-117.76,124.82-117.76
		c73.8,0,124.82,43,124.82,117.76C1150.19,429.38,1099.17,472.06,1025.37,472.06z M1025.37,290.76c-36.26,0-61.29,26.31-61.29,63.53
		c0,37.54,25.35,63.53,61.29,63.53c37.22,0,61.29-26.31,61.29-63.53C1086.65,315.79,1062.59,290.76,1025.37,290.76z"/>
	<path class="st1" d="M1227.52,294.29h-65.46v-52.3h194.45v52.3h-65.78v172.31h-63.21V294.29z"/>
	<path class="st1" d="M1431.59,294.29h-65.46v-52.3h194.45v52.3h-65.78v172.31h-63.21V294.29z"/>
	<path class="st1" d="M1722.62,429.71h-100.43l-14.76,36.9h-67.38l100.76-224.62h64.18l100.44,224.62h-68.03L1722.62,429.71z
		 M1672.57,304.88l-28.88,71.56h57.44L1672.57,304.88z"/>
	<path class="st1" d="M1938.25,241.99c44.92,0,81.5,19.89,81.5,62.89c0,17.01-5.13,34.66-24.71,43.64
		c20.86,11.23,31.13,32.09,31.13,52.3c0,50.38-45.89,65.46-86.96,65.78h-115.84V241.99H1938.25z M1885.95,327.67h50.7
		c13.16,0,20.22-6.74,20.22-16.69c0-9.95-7.06-17.65-19.57-17.65h-51.34V327.67z M1885.95,417.19h53.59
		c16.04,0,23.75-8.66,23.75-21.18c0-12.19-8.02-21.5-23.75-21.5h-53.59V417.19z"/>
</g>
<g>
	<path class="st1" d="M369.53,363.46c-0.6,0-1.28,0-1.96,0c-26.17,0-52.34,0-78.51,0c-0.78,0-1.56,0.07-2.35,0.11
		c-0.78-0.04-1.57-0.1-2.35-0.1c-30.6-0.01-61.2,0-91.79-0.01c-3.48,0-6.65,0.61-8.8,3.73c-0.14,0.21-0.5,0.27-0.76,0.4
		c0,1.37,0,2.75,0,4.12c1.2,1.2,1.72,2.83,2.59,4.24c9.87,15.87,19.67,31.78,29.56,47.64c5.1,8.17,12.62,12.29,22.19,12.7
		c2.93,0.13,5.87,0.11,8.8,0.16c-0.39,0.79-0.76,1.59-1.18,2.36c-4.82,8.66-9.63,17.32-14.48,25.96c-1.06,1.9-1.94,3.86-2.41,5.98
		c-1.54,6.85-1.01,13.42,2.48,19.66c8.68,15.49,17.33,31,25.93,46.54c1.77,3.19,3.57,6.3,6.6,8.47c1.37,0,2.75,0,4.12,0
		c2.73-2.16,4.55-4.99,6.22-8.01c11.48-20.73,23.06-41.41,34.57-62.12c1.95-3.5,4.11-6.89,5.72-10.58c0.46-1.02,0.28-2.41,1.65-2.92
		c0.55-0.79,0.58-1.84,1.3-2.54c0.61-0.89,0.33-2.31,1.66-2.76c0.53-0.79,0.56-1.83,1.28-2.52c0.61-0.89,0.32-2.32,1.66-2.78
		c0.52-0.79,0.58-1.82,1.28-2.52c0.6-0.9,0.33-2.34,1.68-2.78c0.5-0.8,0.57-1.81,1.26-2.52c0.6-0.9,0.33-2.34,1.69-2.78
		c0.22-0.46,0.45-0.91,0.67-1.37c0.47-0.68,0.57-1.55,1.16-2.16c0.01-0.2,0.01-0.4,0.02-0.6c0.85-0.53,1.37-1.33,1.85-2.2
		c12.73-22.86,25.48-45.7,38.2-68.56C369.45,365.1,370.14,364.49,369.53,363.46z"/>
	<path class="st1" d="M608.29,335.49c-0.57-1.55-1.44-3.01-2.27-4.45c-2.4-4.16-4.86-8.29-7.3-12.43
		c-6.71-11.41-13.27-22.92-20.19-34.21c-4.84-7.9-12.15-12.06-21.52-12.2c-7.26-0.11-14.51-0.07-21.77-0.1
		c0.44-0.87,0.85-1.76,1.32-2.62c5.49-9.95,11.02-19.89,16.48-29.86c4.82-8.81,4.73-17.67-0.29-26.31
		c-9.1-15.68-18.36-31.27-27.56-46.89c-0.64-1.09-1.36-2.15-2.13-3.17c-2.56-3.37-7.81-3.44-10.48-0.07
		c-0.92,1.16-1.65,2.43-2.36,3.71c-16.6,30.02-33.22,60.03-49.79,90.06c-2.79,5.06-5.77,10.02-8.26,15.24
		c-0.47,0.74-0.98,1.47-1.4,2.23c-10.31,18.62-20.64,37.24-30.9,55.89c-2.6,4.72-5.41,9.33-7.69,14.22
		c1.16,1.11,2.62,0.62,3.93,0.62c28.15-0.01,56.3-0.09,84.45-0.11c32.07-0.02,64.15-0.01,96.22,0c2.16,0,4.32-0.06,6.44-0.49
		C607.83,343.62,609.93,339.92,608.29,335.49z"/>
	<path class="st1" d="M429.46,232.36c-9.26-16.15-18.82-32.13-28.26-48.19c-0.75-1.27-1.53-2.52-2.63-3.52
		c-2.79-2.55-6.16-2.58-9-0.08c-1.27,1.12-2.09,2.57-2.9,4.03c-8.16,14.64-16.33,29.27-24.48,43.91
		c-8.1,14.56-16.19,29.12-24.28,43.68l-0.08-0.07c-1.57,0.02-3.14,0.05-4.71,0.05c-29.93,0-59.86,0-89.79,0.01
		c-1.27,0-2.57-0.05-3.82,0.16c-4.88,0.81-6.97,4.49-5.22,9.1c0.31,0.82,0.73,1.61,1.19,2.36c10.17,16.44,20.25,32.93,30.58,49.28
		c4.33,6.86,10.92,10.52,18.94,11.61c4.79,0.65,9.61,0.41,14.4,0.43c26.1,0.1,52.21,0.05,78.31,0.04c1.05,0,2.18,0.25,3.08-0.6
		c0.6-1.01,1.21-2.01,1.79-3.04c9.02-16.17,18.05-32.33,27.03-48.51c3.61-6.5,7.42-12.9,10.74-19.56
		c3.43-5.48,6.56-11.14,9.51-16.89C434,248.51,433.96,240.2,429.46,232.36z"/>
	<path class="st1" d="M558.21,427.49c-0.41-1.43-1.11-2.72-1.86-3.99c-1.98-3.39-3.97-6.77-5.96-10.15
		c-7.36-12.51-14.66-25.06-22.12-37.5c-4.56-7.61-11.58-11.75-20.32-12.26c-7.82-0.45-15.68-0.06-23.53-0.04
		c-0.98-0.03-1.96-0.09-2.94-0.09c-25.59-0.01-51.18,0.03-76.77-0.06c-2.37-0.01-3.64,0.72-4.78,2.81
		c-8.82,16.17-17.81,32.26-26.69,48.41c-3.78,6.87-7.76,13.62-11.25,20.64c-1.7,2.97-3.53,5.88-5.08,8.93
		c-4.19,8.25-4.42,16.7,0.01,24.83c9.09,16.71,18.48,33.27,27.76,49.88c0.52,0.94,1.1,1.87,1.79,2.69c3.09,3.7,7.21,3.73,10.3,0.07
		c0.82-0.96,1.49-2.07,2.1-3.18c12.49-22.57,24.98-45.14,37.43-67.73c2.6-4.72,5.43-9.32,7.67-14.23c0.15-0.02,0.28-0.08,0.39-0.18
		c5.88-0.01,11.77-0.03,17.65-0.03c28.74,0,57.47,0,86.21,0c1.77,0,3.53,0.02,5.26-0.46C557.53,434.75,559.36,431.48,558.21,427.49z
		"/>
</g>
</svg>
