<?xml version="1.0" encoding="UTF-8"?>
<svg width="64px" height="64px" viewBox="0 0 64 64" version="1.1" xmlns="http://www.w3.org/2000/svg" xmlns:xlink="http://www.w3.org/1999/xlink">
    <!-- Generator: Sketch 49.2 (51160) - http://www.bohemiancoding.com/sketch -->
    <title>love it</title>
    <desc>Created with Sketch.</desc>
    <defs></defs>
    <g id="love-it" stroke="none" stroke-width="1" fill="none" fill-rule="evenodd">
        <path d="M32,60 C16.536027,60 4,47.463973 4,32 C4,16.536027 16.536027,4 32,4 C47.463973,4 60,16.536027 60,32 C60,47.463973 47.463973,60 32,60 Z" id="Oval" fill="#E33322" fill-rule="nonzero"></path>
        <circle id="Oval" fill="#F7F7F7" cx="32" cy="32" r="26"></circle>
        <path d="M27,30 L38,30 L38,34.5 C38,37.5375661 35.5375661,40 32.5,40 L32.5,40 C29.4624339,40 27,37.5375661 27,34.5 L27,30 Z" id="Rectangle" fill="#D90000"></path>
        <path d="M29,32 L29,34.5 C29,36.4329966 30.5670034,38 32.5,38 C34.4329966,38 36,36.4329966 36,34.5 L36,32 L29,32 Z M27,30 L38,30 L38,34.5 C38,37.5375661 35.5375661,40 32.5,40 C29.4624339,40 27,37.5375661 27,34.5 L27,30 Z" id="Rectangle" fill="#E33322" fill-rule="nonzero"></path>
        <path d="M18.4860552,54.2164181 C10.9989399,49.6523534 6,41.4099592 6,32 C6,17.6405965 17.6405965,6 32,6 C38.7465961,6 44.8930213,8.5696375 49.5139448,12.7835819 C45.5758767,10.3829781 40.9494443,9 36,9 C21.6405965,9 10,20.6405965 10,35 C10,42.6128074 13.2718405,49.4614355 18.4860552,54.2164181 Z" id="Combined-Shape" fill="#FFFFFF"></path>
        <g id="like" transform="translate(6.000000, 8.000000)" fill-rule="nonzero">
            <path d="M12.425,4.063 C13.434,1.6715 15.739,0.0005 18.42,0.0005 C22.0315,0.0005 24.6325,3.09 24.9595,6.772 C24.9595,6.772 25.136,7.686 24.7475,9.3315 C24.2185,11.5725 22.975,13.5635 21.2985,15.083 L12.425,23 L3.701,15.0825 C2.0245,13.5635 0.781,11.572 0.252,9.331 C-0.1365,7.6855 0.04,6.7715 0.04,6.7715 C0.367,3.0895 2.968,0 6.5795,0 C9.261,0 11.416,1.6715 12.425,4.063 Z" id="Shape" fill="#E33322"></path>
            <path d="M3,8.039 C2.7235,8.039 2.5,7.8155 2.5,7.539 C2.5,4.782 4.743,2.539 7.5,2.539 C7.7765,2.539 8,2.7625 8,3.039 C8,3.3155 7.7765,3.539 7.5,3.539 C5.2945,3.539 3.5,5.3335 3.5,7.539 C3.5,7.8155 3.2765,8.039 3,8.039 Z" id="Shape" fill="#ED7161"></path>
        </g>
        <g id="like-copy" transform="translate(34.000000, 8.000000)" fill-rule="nonzero">
            <path d="M12.425,4.063 C13.434,1.6715 15.739,0.0005 18.42,0.0005 C22.0315,0.0005 24.6325,3.09 24.9595,6.772 C24.9595,6.772 25.136,7.686 24.7475,9.3315 C24.2185,11.5725 22.975,13.5635 21.2985,15.083 L12.425,23 L3.701,15.0825 C2.0245,13.5635 0.781,11.572 0.252,9.331 C-0.1365,7.6855 0.04,6.7715 0.04,6.7715 C0.367,3.0895 2.968,0 6.5795,0 C9.261,0 11.416,1.6715 12.425,4.063 Z" id="Shape" fill="#E33322"></path>
            <path d="M3,8.039 C2.7235,8.039 2.5,7.8155 2.5,7.539 C2.5,4.782 4.743,2.539 7.5,2.539 C7.7765,2.539 8,2.7625 8,3.039 C8,3.3155 7.7765,3.539 7.5,3.539 C5.2945,3.539 3.5,5.3335 3.5,7.539 C3.5,7.8155 3.2765,8.039 3,8.039 Z" id="Shape" fill="#ED7161"></path>
        </g>
    </g>
</svg>