<?xml version="1.0" encoding="UTF-8"?>
<svg width="64px" height="64px" viewBox="0 0 64 64" version="1.1" xmlns="http://www.w3.org/2000/svg" xmlns:xlink="http://www.w3.org/1999/xlink">
    <!-- Generator: Sketch 49.2 (51160) - http://www.bohemiancoding.com/sketch -->
    <title>Could be better</title>
    <desc>Created with Sketch.</desc>
    <defs></defs>
    <g id="Could-be-better" stroke="none" stroke-width="1" fill="none" fill-rule="evenodd">
        <path d="M32,60 C16.536027,60 4,47.463973 4,32 C4,16.536027 16.536027,4 32,4 C47.463973,4 60,16.536027 60,32 C60,47.463973 47.463973,60 32,60 Z" id="Oval" fill="#E33322" fill-rule="nonzero"></path>
        <circle id="Oval-Copy-2" fill="#F7F7F7" cx="32" cy="32" r="26"></circle>
        <path d="M18.4860552,54.2164181 C10.9989399,49.6523534 6,41.4099592 6,32 C6,17.6405965 17.6405965,6 32,6 C38.7465961,6 44.8930213,8.5696375 49.5139448,12.7835819 C45.5758767,10.3829781 40.9494443,9 36,9 C21.6405965,9 10,20.6405965 10,35 C10,42.6128074 13.2718405,49.4614355 18.4860552,54.2164181 Z" id="Combined-Shape-Copy-3" fill="#FFFFFF"></path>
        <path d="M36.6426328,37.6783026 C36.7607171,37.6484226 36.8843801,37.6325472 37.0117509,37.6325472 C37.8401781,37.6325472 38.5117509,38.30412 38.5117509,39.1325472 C38.5117509,39.9609743 37.8401781,40.6325472 37.0117509,40.6325472 C36.3041688,40.6325472 35.7110171,40.1426125 35.5530242,39.4834715 C31.9801746,38.7220085 28.6288055,38.6910888 25.49052,39.3854581 C25.3703032,40.0934537 24.7539831,40.6325472 24.0117509,40.6325472 C23.1833238,40.6325472 22.5117509,39.9609743 22.5117509,39.1325472 C22.5117509,38.30412 23.1833238,37.6325472 24.0117509,37.6325472 C24.0720374,37.6325472 24.1314932,37.6361037 24.18992,37.6430183 C28.0642197,36.6226829 32.2193081,36.6370624 36.6426328,37.6783026 Z" id="Combined-Shape" fill="#E33322" fill-rule="nonzero" transform="translate(30.511751, 38.760002) rotate(-13.000000) translate(-30.511751, -38.760002) "></path>
        <g id="Group" transform="translate(10.000000, 35.000000)">
            <g id="Group-Copy" transform="translate(13.671939, 13.345132) scale(-1, 1) rotate(25.000000) translate(-13.671939, -13.345132) translate(3.671939, 4.345132)" fill-rule="nonzero">
                <path d="M17.6472822,6.81168468 C19.0444289,7.7452989 20,9.63583077 20,11.8160747 C20,14.9226764 18.0599006,17.4410747 15.6666667,17.4410747 C13.2734328,17.4410747 11.3333333,14.9226764 11.3333333,11.8160747 C11.3333333,9.88686244 12.081525,8.18448851 13.2217984,7.17121092 L11.9668054,2.90843307 C11.6169484,1.72008987 12.2609965,0.462224006 13.405327,0.0989110304 C14.5496575,-0.264401946 15.7609357,0.404417197 16.1107926,1.5927604 L17.6472822,6.81168468 Z" id="Combined-Shape" fill="#FFFFFF"></path>
                <path d="M17.06106,7.75774236 L16.7273182,7.53472632 L15.0747958,1.92167856 C14.8998673,1.32750696 14.2942282,0.993097393 13.722063,1.17475388 C13.1498977,1.35641037 12.8278737,1.9853433 13.0028022,2.5795149 L14.4652427,7.54692031 L13.9261445,8.02597747 C13.0015388,8.84760696 12.4166667,10.2555727 12.4166667,11.8160747 C12.4166667,14.3496298 13.9315575,16.3160747 15.6666667,16.3160747 C17.4017758,16.3160747 18.9166667,14.3496298 18.9166667,11.8160747 C18.9166667,10.0543382 18.1704129,8.49904432 17.06106,7.75774236 Z M17.6472822,6.81168468 C19.0444289,7.7452989 20,9.63583077 20,11.8160747 C20,14.9226764 18.0599006,17.4410747 15.6666667,17.4410747 C13.2734328,17.4410747 11.3333333,14.9226764 11.3333333,11.8160747 C11.3333333,9.88686244 12.081525,8.18448851 13.2217984,7.17121092 L11.9668054,2.90843307 C11.6169484,1.72008987 12.2609965,0.462224006 13.405327,0.0989110304 C14.5496575,-0.264401946 15.7609357,0.404417197 16.1107926,1.5927604 L17.6472822,6.81168468 Z" id="Combined-Shape" fill="#E33322"></path>
                <path d="M9.16666667,12.375 L13.5,12.375 C14.696617,12.375 15.6666667,13.3823593 15.6666667,14.625 C15.6666667,15.8676407 14.696617,16.875 13.5,16.875 L9.16666667,16.875 C7.97004971,16.875 7,15.8676407 7,14.625 C7,13.3823593 7.97004971,12.375 9.16666667,12.375 Z" id="Rectangle-Copy" fill="#FFFFFF"></path>
                <path d="M9.16666667,9 L13.5,9 C14.696617,9 15.6666667,10.0073593 15.6666667,11.25 C15.6666667,12.4926407 14.696617,13.5 13.5,13.5 L9.16666667,13.5 C7.97004971,13.5 7,12.4926407 7,11.25 C7,10.0073593 7.97004971,9 9.16666667,9 Z" id="Rectangle-Copy" fill="#FFFFFF"></path>
                <path d="M3.91666667,5.625 L11.75,5.625 C13.9131153,5.625 15.6666667,6.63235931 15.6666667,7.875 C15.6666667,9.11764069 13.9131153,10.125 11.75,10.125 L3.91666667,10.125 C1.7535514,10.125 -5.32907052e-14,9.11764069 -5.32907052e-14,7.875 C-5.32907052e-14,6.63235931 1.7535514,5.625 3.91666667,5.625 Z" id="Rectangle-Copy" fill="#FFFFFF"></path>
            </g>
            <path d="M9.25612256,11.8856371 C14.0036671,9.47097089 16.7850574,8.1180049 17.6002935,7.8267391 C18.8231475,7.38984039 21.0177132,6.80483203 22.1788136,7.8267391 C23.339914,8.84864617 21.5399772,11.0040792 20.3286813,11.5547433 C19.5211507,11.9218527 18.2909215,12.504054 16.6379935,13.3013474 C17.3643968,13.9792064 17.6282532,14.870341 17.4295628,15.9747514 C18.395,16.6383553 20.1245971,18.373071 17.7275984,20.2088382 C16.1295993,21.4326829 14.412441,22.1284846 12.5761234,22.2962431" id="Path-12" stroke="#E33322" stroke-linecap="round"></path>
        </g>
        <ellipse id="Oval-2-Copy-2" fill="#E33322" cx="29.5" cy="18.5" rx="2.5" ry="3.5"></ellipse>
        <ellipse id="Oval-2-Copy-3" fill="#E33322" cx="41.5" cy="18.5" rx="2.5" ry="3.5"></ellipse>
        <path d="M25,17 C24.4477153,17 24,16.5522847 24,16 C24,15.4477153 24.4477153,15 25,15 L33.2570138,15 C33.8092986,15 34.2570138,15.4477153 34.2570138,16 C34.2570138,16.5522847 33.8092986,17 33.2570138,17 L25,17 Z" id="Path-9" fill="#E33322" fill-rule="nonzero"></path>
        <path d="M38,13 C37.4477153,13 37,12.5522847 37,12 C37,11.4477153 37.4477153,11 38,11 L46.2570138,11 C46.8092986,11 47.2570138,11.4477153 47.2570138,12 C47.2570138,12.5522847 46.8092986,13 46.2570138,13 L38,13 Z" id="Path-9" fill="#E33322" fill-rule="nonzero"></path>
    </g>
</svg>