<?xml version="1.0" encoding="UTF-8"?>
<svg width="64px" height="64px" viewBox="0 0 64 64" version="1.1" xmlns="http://www.w3.org/2000/svg" xmlns:xlink="http://www.w3.org/1999/xlink">
    <!-- Generator: Sketch 49.2 (51160) - http://www.bohemiancoding.com/sketch -->
    <title>Horrible Copy</title>
    <desc>Created with Sketch.</desc>
    <defs></defs>
    <g id="Horrible-Copy" stroke="none" stroke-width="1" fill="none" fill-rule="evenodd">
        <circle id="Oval" fill="#E33322" cx="32" cy="32" r="26"></circle>
        <path d="M18.4860552,54.2164181 C10.9989399,49.6523534 6,41.4099592 6,32 C6,17.6405965 17.6405965,6 32,6 C38.7465961,6 44.8930213,8.5696375 49.5139448,12.7835819 C45.5758767,10.3829781 40.9494443,9 36,9 C21.6405965,9 10,20.6405965 10,35 C10,42.6128074 13.2718405,49.4614355 18.4860552,54.2164181 Z" id="Combined-Shape" fill="#FF5444"></path>
        <path d="M18.0376647,19.9481808 C17.514149,19.7722556 17.2323711,19.2052467 17.4082963,18.6817309 C17.5842215,18.1582151 18.1512304,17.8764373 18.6747462,18.0523624 L26.8997808,20.8163493 C27.7227972,21.0929204 27.8265327,22.2149178 27.0681755,22.6376965 L15.4871163,29.0940541 C15.0047298,29.3629811 14.3956699,29.189938 14.1267429,28.7075515 C13.8578159,28.225165 14.0308589,27.6161051 14.5132454,27.3471781 L24.1192819,21.9918816 L18.0376647,19.9481808 Z M45.5437075,19.9481808 L39.4620903,21.9918816 L49.0681268,27.3471781 C49.5505133,27.6161051 49.7235563,28.225165 49.4546293,28.7075515 C49.1857023,29.189938 48.5766424,29.3629811 48.0942559,29.0940541 L36.5131967,22.6376965 C35.7548395,22.2149178 35.858575,21.0929204 36.6815914,20.8163493 L44.906626,18.0523624 C45.4301418,17.8764373 45.9971507,18.1582151 46.1730759,18.6817309 C46.3490011,19.2052467 46.0672232,19.7722556 45.5437075,19.9481808 Z" id="Combined-Shape" fill="#FFFFFF" fill-rule="nonzero"></path>
        <path d="M31.6831763,45.4014587 C29.6303652,45.4014587 27.9514726,46.083692 25.8694757,47.5060185 C25.5300681,47.7378864 24.4427477,48.5132428 24.3243282,48.5957375 C23.7183372,49.0178892 23.2662859,49.3000957 22.8207728,49.5174142 C21.5590745,50.1328626 20.4124858,50.1377952 19.3491716,49.3479891 C18.8010633,48.9408665 18.3015988,48.3329469 17.8187513,47.5027619 C14.2533065,41.3725051 23.3176896,33 31.6831763,33 C35.4393866,33 39.9734261,34.9119787 43.1048168,37.7116368 C46.6232163,40.8573048 47.7918469,44.5820882 45.4774327,47.6075827 C44.0348593,49.4933721 42.6046147,50.1949047 41.0124664,49.7781724 C40.3932643,49.6161011 39.7997812,49.3024983 39.0744449,48.8008134 C38.7184319,48.5545741 37.4546508,47.6056574 37.2501502,47.4583565 C35.3099328,46.060825 33.7316646,45.4014587 31.6831763,45.4014587 Z" id="Oval-4" fill="#D90000" fill-rule="nonzero"></path>
        <path d="M31.6831763,45.4014587 C29.6303652,45.4014587 27.9514726,46.083692 25.8694757,47.5060185 C25.5300681,47.7378864 24.4427477,48.5132428 24.3243282,48.5957375 C23.7183372,49.0178892 23.2662859,49.3000957 22.8207728,49.5174142 C21.5590745,50.1328626 20.4124858,50.1377952 19.3491716,49.3479891 C18.8010633,48.9408665 18.3015988,48.3329469 17.8187513,47.5027619 C14.2533065,41.3725051 23.3176896,33 31.6831763,33 C35.4393866,33 39.9734261,34.9119787 43.1048168,37.7116368 C46.6232163,40.8573048 47.7918469,44.5820882 45.4774327,47.6075827 C44.0348593,49.4933721 42.6046147,50.1949047 41.0124664,49.7781724 C40.3932643,49.6161011 39.7997812,49.3024983 39.0744449,48.8008134 C38.7184319,48.5545741 37.4546508,47.6056574 37.2501502,47.4583565 C35.3099328,46.060825 33.7316646,45.4014587 31.6831763,45.4014587 Z M31.6831763,43.4014587 C34.2219523,43.4014587 36.1693271,44.2150297 38.4190764,45.8355158 C38.6526915,46.003788 39.8948849,46.9364953 40.2121426,47.1559293 C40.7622951,47.5364468 41.1705589,47.7521777 41.5188907,47.8433508 C42.2199683,48.0268524 42.8900517,47.6981776 43.8889199,46.3924173 C45.433037,44.3738858 44.6054406,41.7360828 41.7717859,39.2026192 C38.9906285,36.7160915 34.9211133,35 31.6831763,35 C24.6149794,35 16.9684906,42.0628376 19.5476012,46.4972381 C19.9048094,47.1114049 20.2377588,47.5166519 20.5417374,47.7424404 C21.2366251,48.2585875 21.1866534,48.2829634 24.7412954,45.854592 C27.1252379,44.2259899 29.1543082,43.4014587 31.6831763,43.4014587 Z" id="Oval-4" fill="#FFFFFF" fill-rule="nonzero"></path>
    </g>
</svg>