<?xml version="1.0" encoding="UTF-8"?>
<svg width="64px" height="64px" viewBox="0 0 64 64" version="1.1" xmlns="http://www.w3.org/2000/svg" xmlns:xlink="http://www.w3.org/1999/xlink">
    <!-- Generator: Sketch 49.2 (51160) - http://www.bohemiancoding.com/sketch -->
    <title>hungry copy</title>
    <desc>Created with Sketch.</desc>
    <defs></defs>
    <g id="hungry-copy" stroke="none" stroke-width="1" fill="none" fill-rule="evenodd">
        <path d="M32,60 C16.536027,60 4,47.463973 4,32 C4,16.536027 16.536027,4 32,4 C47.463973,4 60,16.536027 60,32 C60,47.463973 47.463973,60 32,60 Z" id="Oval" fill="#E33322" fill-rule="nonzero"></path>
        <circle id="Oval-Copy-2" fill="#F7F7F7" cx="32" cy="32" r="26"></circle>
        <path d="M18.4860552,54.2164181 C10.9989399,49.6523534 6,41.4099592 6,32 C6,17.6405965 17.6405965,6 32,6 C38.7465961,6 44.8930213,8.5696375 49.5139448,12.7835819 C45.5758767,10.3829781 40.9494443,9 36,9 C21.6405965,9 10,20.6405965 10,35 C10,42.6128074 13.2718405,49.4614355 18.4860552,54.2164181 Z" id="Combined-Shape-Copy-3" fill="#FFFFFF"></path>
        <ellipse id="Oval-2-Copy-2" fill="#E33322" cx="27.5" cy="28.5" rx="2.5" ry="3.5"></ellipse>
        <ellipse id="Oval-2-Copy-3" fill="#E33322" cx="36.5" cy="28.5" rx="2.5" ry="3.5"></ellipse>
        <path d="M34.8773762,44.4837688 C34.7192456,47.5617722 35.0488692,49.100774 35.8662468,49.100774 C36.6836245,49.100774 37.0923133,48.3312731 37.0923133,46.7922714 C37.4203614,46.500926 37.5843854,46.7001063 37.5843854,47.3898125 C37.5843854,48.4243718 37.5323949,53.2143286 38.8155285,53.2143286 C39.6709508,53.2143286 39.9653305,50.304142 39.6986675,44.4837688 L34.8773762,44.4837688 Z" id="Path-10" fill="#5AB0EE"></path>
        <path d="M38.1308819,43.0457554 C38.2489662,43.0158754 38.3726291,43 38.5,43 C39.3284271,43 40,43.6715729 40,44.5 C40,45.3284271 39.3284271,46 38.5,46 C37.7924179,46 37.1992662,45.5100653 37.0412733,44.8509243 C33.4684236,44.0894613 30.1170545,44.0585416 26.9787691,44.752911 C26.8585523,45.4609065 26.2422322,46 25.5,46 C24.6715729,46 24,45.3284271 24,44.5 C24,43.6715729 24.6715729,43 25.5,43 C25.5602865,43 25.6197422,43.0035565 25.678169,43.0104712 C29.5524688,41.9901357 33.7075571,42.0045153 38.1308819,43.0457554 Z" id="Combined-Shape" fill="#E33322" fill-rule="nonzero"></path>
    </g>
</svg>