<?xml version="1.0" encoding="UTF-8"?>
<svg width="64px" height="64px" viewBox="0 0 64 64" version="1.1" xmlns="http://www.w3.org/2000/svg" xmlns:xlink="http://www.w3.org/1999/xlink">
    <!-- Generator: Sketch 49.2 (51160) - http://www.bohemiancoding.com/sketch -->
    <title>expensive copy</title>
    <desc>Created with Sketch.</desc>
    <defs></defs>
    <g id="expensive-copy" stroke="none" stroke-width="1" fill="none" fill-rule="evenodd">
        <path d="M32,60 C16.536027,60 4,47.463973 4,32 C4,16.536027 16.536027,4 32,4 C47.463973,4 60,16.536027 60,32 C60,47.463973 47.463973,60 32,60 Z" id="Oval" fill="#E33322" fill-rule="nonzero"></path>
        <circle id="Oval" fill="#F7F7F7" cx="32" cy="32" r="26"></circle>
        <path d="M18.4860552,54.2164181 C10.9989399,49.6523534 6,41.4099592 6,32 C6,17.6405965 17.6405965,6 32,6 C38.7465961,6 44.8930213,8.5696375 49.5139448,12.7835819 C45.5758767,10.3829781 40.9494443,9 36,9 C21.6405965,9 10,20.6405965 10,35 C10,42.6128074 13.2718405,49.4614355 18.4860552,54.2164181 Z" id="Combined-Shape" fill="#FFFFFF"></path>
        <path d="M10,43 C14,36.9971613 16,32.8102859 16,30.4393739 C16,26.8830059 13.3137085,24 10,24 C6.6862915,24 4,26.8830059 4,30.4393739 C4,32.8102859 6,36.9971613 10,43 Z" id="Oval-3-Copy" fill="#5AB0EE" transform="translate(10.000000, 33.500000) scale(1, -1) translate(-10.000000, -33.500000) "></path>
        <path d="M24,48 C25.0268778,43.323015 28.4359743,40 32,40 C36.5757098,40 40.0156596,43.3976215 41,48 C38.4664293,47.2314725 35.4613169,46.7864473 32,47 C29.2350588,46.7864473 26.4201743,47.1731078 24,48 Z" id="Combined-Shape-Copy" fill="#D90000"></path>
        <path d="M32,45.2857143 C34.3310768,45.2593264 36.8051999,45.5170503 39,46 C37.9520392,43.0378333 35.1597564,41 32,41 C28.8424054,41 26.0761415,42.9891445 25,46 C27.0760772,45.4811794 29.3792168,45.2593264 32,45.2857143 Z M23,47 C24.1105216,42.4049652 27.757664,39 32,39 C36.2587523,39 39.9373307,42.4851179 41,47 C41.0701178,47.749166 40.7341872,48.0875411 40,48 C37.8184526,47.2085005 34.8446583,46.7918791 32,47 C28.8402757,46.7918791 26.0557768,47.1544637 24,48 C23.2553716,47.9306213 22.9270152,47.588243 23,47 Z" id="Combined-Shape-Copy-2" fill="#E33322" fill-rule="nonzero"></path>
        <text id="$" font-family="SVN-NexaHeavy, SVN-Nexa" font-size="15" font-weight="600" fill="#E33322">
            <tspan x="18.275" y="32">$</tspan>
        </text>
        <text id="$" font-family="SVN-NexaHeavy, SVN-Nexa" font-size="15" font-weight="600" fill="#E33322">
            <tspan x="34.275" y="32">$</tspan>
        </text>
    </g>
</svg>