<?xml version="1.0" encoding="UTF-8"?>
<svg width="64px" height="64px" viewBox="0 0 64 64" version="1.1" xmlns="http://www.w3.org/2000/svg" xmlns:xlink="http://www.w3.org/1999/xlink">
    <!-- Generator: Sketch 49.2 (51160) - http://www.bohemiancoding.com/sketch -->
    <title>Reasonable copy </title>
    <desc>Created with Sketch.</desc>
    <defs></defs>
    <g id="Reasonable-copy-" stroke="none" stroke-width="1" fill="none" fill-rule="evenodd">
        <path d="M32,60 C16.536027,60 4,47.463973 4,32 C4,16.536027 16.536027,4 32,4 C47.463973,4 60,16.536027 60,32 C60,47.463973 47.463973,60 32,60 Z" id="Oval" fill="#E33322" fill-rule="nonzero"></path>
        <circle id="Oval-Copy-2" fill="#F7F7F7" cx="32" cy="32" r="26"></circle>
        <path d="M18.4860552,54.2164181 C10.9989399,49.6523534 6,41.4099592 6,32 C6,17.6405965 17.6405965,6 32,6 C38.7465961,6 44.8930213,8.5696375 49.5139448,12.7835819 C45.5758767,10.3829781 40.9494443,9 36,9 C21.6405965,9 10,20.6405965 10,35 C10,42.6128074 13.2718405,49.4614355 18.4860552,54.2164181 Z" id="Combined-Shape-Copy-3" fill="#FFFFFF"></path>
        <path d="M43.9212071,55 C42.0078773,55 40.1632981,54.3980336 38.6324025,53.2815928 C37.383757,52.3709894 36.9500964,50.7689318 37.4737201,49.3983648 C36.0486267,49.0070538 35,47.7119125 35,46.1706272 C35,41.2916721 38.996754,37.3412543 43.9212071,37.3412543 C45.4957767,37.3412543 47.0068412,37.7474083 48.3296728,38.4926806 C48.1902258,38.0495798 47.9823642,37.6246564 47.7084267,37.2334331 C46.6403587,35.7080739 46.9978392,33.6092148 48.515011,32.5468796 C50.0321829,31.4845444 52.1267308,31.8664747 53.1947989,33.391834 C54.3089305,34.9829789 54.9793764,36.7975665 55.1870581,38.6608389 C55.2573598,38.1459775 55.2408507,37.6122861 55.1278807,37.0808042 C54.7407242,35.2593761 55.8898764,33.4670449 57.7015278,33.0819665 C59.5131793,32.6968881 61.2919888,33.8668619 61.6791453,35.6882899 C62.4779675,39.446453 61.3340949,43.2740957 58.7445485,45.940604 C59.0298816,46.6306239 59.1793799,47.3695964 59.1793799,48.1279704 C59.1793799,51.7860159 56.8106925,54.2170627 52.657239,54.2168049 C50.594109,54.2636585 49.0363586,54.2181592 47.8923509,54.0789547 C46.6699481,54.6813121 45.317862,55 43.9212071,55 Z M42.6326108,47.8855887 C43.0057966,48.1577429 43.4495808,48.3023763 43.9212071,48.3023763 C45.1214206,48.3023763 46.0896899,47.3453326 46.0896899,46.1706272 C46.0896899,44.9959218 45.1214206,44.038878 43.9212071,44.038878 C42.7209936,44.038878 41.7527243,44.9959218 41.7527243,46.1706272 C41.7527243,46.5881002 41.6757914,46.9875147 41.5352828,47.3558015 C41.9199611,47.4615568 42.2920429,47.6372217 42.6326108,47.8855887 Z" id="Combined-Shape" fill="#E33322" fill-rule="nonzero"></path>
        <path d="M47.7136752,53.0460172 C46.5873473,53.6542659 45.2951261,54 43.9212071,54 C42.2086168,54 40.5724578,53.4587478 39.2216307,52.4736261 C38.1655493,51.7034545 37.9410969,50.2329094 38.7203022,49.1890717 C39.4995075,48.145234 40.9873012,47.9233837 42.0433826,48.6935553 C42.5837453,49.0876272 43.2329134,49.3023763 43.9212071,49.3023763 C45.6711118,49.3023763 47.0896899,47.9002445 47.0896899,46.1706272 C47.0896899,44.4410099 45.6711118,43.038878 43.9212071,43.038878 C42.1713023,43.038878 40.7527243,44.4410099 40.7527243,46.1706272 C40.7527243,47.4678401 39.6887907,48.519439 38.3763621,48.519439 C37.0639336,48.519439 36,47.4678401 36,46.1706272 C36,41.846584 39.5464452,38.3412543 43.9212071,38.3412543 C46.092699,38.3412543 48.0601092,39.2049017 49.4910221,40.6036346 C49.6714549,39.258358 49.3579931,37.8458112 48.5275788,36.6598567 C47.7748007,35.5847781 48.0259728,34.1100824 49.0885875,33.3660317 C50.1512021,32.6219809 51.6228687,32.8903319 52.3756468,33.9654104 C54.1809184,36.5436054 54.6708662,39.696617 53.9127773,42.5530964 C55.649872,41.3181958 56.5818504,39.1114592 56.1060283,36.8728925 C55.8331591,35.5891436 56.6405738,34.3298199 57.9094395,34.0601141 C59.1783053,33.7904084 60.4281284,34.6124527 60.7009977,35.8962016 C61.4988066,39.6495973 60.1655127,43.354809 57.5248028,45.7271336 C57.9424926,46.4423156 58.1793799,47.2597528 58.1793799,48.1279704 C58.1793799,50.9385985 56.5456557,53.2170627 52.6345349,53.2170627 C50.3608706,53.2686975 48.7837493,53.2046063 47.7136752,53.0460172 Z" id="Combined-Shape" fill="#FFFFFF" fill-rule="nonzero"></path>
        <path d="M16.0853651,18.3826391 C15.636459,18.9071147 14.8473773,18.9683759 14.3229017,18.5194699 C13.798426,18.0705638 13.7371648,17.2814821 14.1860709,16.7570065 C14.7492238,16.0990515 15.7521722,15.236764 17.1688995,14.5060292 C19.5365617,13.2848112 22.235322,12.9339623 25.1586073,13.8277003 C25.8187979,14.0295408 26.1903641,14.7283552 25.9885236,15.3885459 C25.786683,16.0487365 25.0878687,16.4203027 24.427678,16.2184622 C22.1650739,15.5267147 20.131038,15.791147 18.3149131,16.7278872 C17.6746075,17.0581509 17.1086274,17.4501277 16.6261584,17.8649316 C16.345402,18.1063127 16.1624371,18.2925927 16.0853651,18.3826391 Z M42.8431002,18.3826391 C42.7660282,18.2925927 42.5830633,18.1063127 42.3023069,17.8649316 C41.8198379,17.4501277 41.2538577,17.0581509 40.6135521,16.7278872 C38.7974272,15.791147 36.7633913,15.5267147 34.5007872,16.2184622 C33.8405966,16.4203027 33.1417822,16.0487365 32.9399417,15.3885459 C32.7381011,14.7283552 33.1096673,14.0295408 33.769858,13.8277003 C36.6931432,12.9339623 39.3919036,13.2848112 41.7595657,14.5060292 C43.176293,15.236764 44.1792415,16.0990515 44.7423944,16.7570065 C45.1913004,17.2814821 45.1300392,18.0705638 44.6055636,18.5194699 C44.081088,18.9683759 43.2920062,18.9071147 42.8431002,18.3826391 Z" id="Combined-Shape" fill="#E33322" fill-rule="nonzero" transform="translate(29.464233, 16.073652) scale(-1, 1) rotate(9.000000) translate(-29.464233, -16.073652) "></path>
        <path d="M27.2944391,26.0937834 C27.1820396,25.5530572 27.529267,25.0235943 28.0699932,24.9111948 C28.6107194,24.7987954 29.1401824,25.1460228 29.2525818,25.6867489 C30.4783101,31.5834262 31.9450451,31.8343042 35.2924046,26.6888773 C35.5935725,26.2259341 36.2130069,26.0947893 36.67595,26.3959572 C37.1388932,26.697125 37.270038,27.3165594 36.9688701,27.7795026 C32.659167,34.4042055 28.8878174,33.7591343 27.2944391,26.0937834 Z" id="Path-11" fill="#E33322" fill-rule="nonzero" transform="translate(32.202032, 28.610551) scale(-1, 1) translate(-32.202032, -28.610551) "></path>
    </g>
</svg>