<?xml version="1.0" encoding="UTF-8"?>
<svg width="64px" height="64px" viewBox="0 0 64 64" version="1.1" xmlns="http://www.w3.org/2000/svg" xmlns:xlink="http://www.w3.org/1999/xlink">
    <!-- Generator: Sketch 49.2 (51160) - http://www.bohemiancoding.com/sketch -->
    <title>satisfied</title>
    <desc>Created with Sketch.</desc>
    <defs></defs>
    <g id="satisfied" stroke="none" stroke-width="1" fill="none" fill-rule="evenodd">
        <rect id="Rectangle-2" x="0" y="0" width="64" height="64"></rect>
        <circle id="Oval" fill="#E33322" cx="32" cy="32" r="26"></circle>
        <path d="M18.4860552,54.2164181 C10.9989399,49.6523534 6,41.4099592 6,32 C6,17.6405965 17.6405965,6 32,6 C38.7465961,6 44.8930213,8.5696375 49.5139448,12.7835819 C45.5758767,10.3829781 40.9494443,9 36,9 C21.6405965,9 10,20.6405965 10,35 C10,42.6128074 13.2718405,49.4614355 18.4860552,54.2164181 Z" id="Combined-Shape" fill="#FF5444"></path>
        <path d="M21.0853651,18.3826391 C20.636459,18.9071147 19.8473773,18.9683759 19.3229017,18.5194699 C18.798426,18.0705638 18.7371648,17.2814821 19.1860709,16.7570065 C19.7492238,16.0990515 20.7521722,15.236764 22.1688995,14.5060292 C24.5365617,13.2848112 27.235322,12.9339623 30.1586073,13.8277003 C30.8187979,14.0295408 31.1903641,14.7283552 30.9885236,15.3885459 C30.786683,16.0487365 30.0878687,16.4203027 29.427678,16.2184622 C27.1650739,15.5267147 25.131038,15.791147 23.3149131,16.7278872 C22.6746075,17.0581509 22.1086274,17.4501277 21.6261584,17.8649316 C21.345402,18.1063127 21.1624371,18.2925927 21.0853651,18.3826391 Z M47.8431002,18.3826391 C47.7660282,18.2925927 47.5830633,18.1063127 47.3023069,17.8649316 C46.8198379,17.4501277 46.2538577,17.0581509 45.6135521,16.7278872 C43.7974272,15.791147 41.7633913,15.5267147 39.5007872,16.2184622 C38.8405966,16.4203027 38.1417822,16.0487365 37.9399417,15.3885459 C37.7381011,14.7283552 38.1096673,14.0295408 38.769858,13.8277003 C41.6931432,12.9339623 44.3919036,13.2848112 46.7595657,14.5060292 C48.176293,15.236764 49.1792415,16.0990515 49.7423944,16.7570065 C50.1913004,17.2814821 50.1300392,18.0705638 49.6055636,18.5194699 C49.081088,18.9683759 48.2920062,18.9071147 47.8431002,18.3826391 Z" id="Combined-Shape" fill="#FFFFFF" fill-rule="nonzero" transform="translate(34.464233, 16.073652) rotate(9.000000) translate(-34.464233, -16.073652) "></path>
        <path d="M27.2944391,26.0937834 C27.1820396,25.5530572 27.529267,25.0235943 28.0699932,24.9111948 C28.6107194,24.7987954 29.1401824,25.1460228 29.2525818,25.6867489 C30.4783101,31.5834262 31.9450451,31.8343042 35.2924046,26.6888773 C35.5935725,26.2259341 36.2130069,26.0947893 36.67595,26.3959572 C37.1388932,26.697125 37.270038,27.3165594 36.9688701,27.7795026 C32.659167,34.4042055 28.8878174,33.7591343 27.2944391,26.0937834 Z" id="Path-11" fill="#FFFFFF" fill-rule="nonzero"></path>
        <g id="Group" transform="translate(8.499862, 43.824296) rotate(-23.000000) translate(-8.499862, -43.824296) translate(1.999862, 34.824296)" fill-rule="nonzero">
            <path d="M10.6472822,6.81168468 C12.0444289,7.7452989 13,9.63583077 13,11.8160747 C13,14.9226764 11.0599006,17.4410747 8.66666667,17.4410747 C6.27343275,17.4410747 4.33333333,14.9226764 4.33333333,11.8160747 C4.33333333,9.88686244 5.08152497,8.18448851 6.22179838,7.17121092 L4.96680536,2.90843307 C4.61694842,1.72008987 5.26099648,0.462224006 6.40532697,0.0989110304 C7.54965746,-0.264401946 8.7609357,0.404417197 9.11079264,1.5927604 L10.6472822,6.81168468 Z" id="Combined-Shape" fill="#FFFFFF"></path>
            <path d="M10.06106,7.75774236 L9.72731818,7.53472632 L8.07479582,1.92167856 C7.89986735,1.32750696 7.29422823,0.993097393 6.72206298,1.17475388 C6.14989774,1.35641037 5.82787371,1.9853433 6.00280218,2.5795149 L7.46524271,7.54692031 L6.9261445,8.02597747 C6.00153879,8.84760696 5.41666667,10.2555727 5.41666667,11.8160747 C5.41666667,14.3496298 6.93155753,16.3160747 8.66666667,16.3160747 C10.4017758,16.3160747 11.9166667,14.3496298 11.9166667,11.8160747 C11.9166667,10.0543382 11.1704129,8.49904432 10.06106,7.75774236 Z M10.6472822,6.81168468 C12.0444289,7.7452989 13,9.63583077 13,11.8160747 C13,14.9226764 11.0599006,17.4410747 8.66666667,17.4410747 C6.27343275,17.4410747 4.33333333,14.9226764 4.33333333,11.8160747 C4.33333333,9.88686244 5.08152497,8.18448851 6.22179838,7.17121092 L4.96680536,2.90843307 C4.61694842,1.72008987 5.26099648,0.462224006 6.40532697,0.0989110304 C7.54965746,-0.264401946 8.7609357,0.404417197 9.11079264,1.5927604 L10.6472822,6.81168468 Z" id="Combined-Shape" fill="#D90000"></path>
            <path d="M2.16666667,12.375 L6.5,12.375 C7.69661696,12.375 8.66666667,13.3823593 8.66666667,14.625 C8.66666667,15.8676407 7.69661696,16.875 6.5,16.875 L2.16666667,16.875 C0.970049709,16.875 0,15.8676407 0,14.625 C0,13.3823593 0.970049709,12.375 2.16666667,12.375 Z" id="Rectangle-Copy" fill="#FFFFFF"></path>
            <path d="M2.16666667,9 L6.5,9 C7.69661696,9 8.66666667,10.0073593 8.66666667,11.25 C8.66666667,12.4926407 7.69661696,13.5 6.5,13.5 L2.16666667,13.5 C0.970049709,13.5 0,12.4926407 0,11.25 C0,10.0073593 0.970049709,9 2.16666667,9 Z" id="Rectangle-Copy" fill="#FFFFFF"></path>
            <path d="M2.16666667,5.625 L6.5,5.625 C7.69661696,5.625 8.66666667,6.63235931 8.66666667,7.875 C8.66666667,9.11764069 7.69661696,10.125 6.5,10.125 L2.16666667,10.125 C0.970049709,10.125 0,9.11764069 0,7.875 C0,6.63235931 0.970049709,5.625 2.16666667,5.625 Z" id="Rectangle-Copy" fill="#FFFFFF"></path>
            <path d="M2.16666667,13.5 C1.56835819,13.5 1.08333333,14.0036797 1.08333333,14.625 C1.08333333,15.2463203 1.56835819,15.75 2.16666667,15.75 L6.5,15.75 C7.09830848,15.75 7.58333333,15.2463203 7.58333333,14.625 C7.58333333,14.0036797 7.09830848,13.5 6.5,13.5 L2.16666667,13.5 Z M2.16666667,12.375 L6.5,12.375 C7.69661696,12.375 8.66666667,13.3823593 8.66666667,14.625 C8.66666667,15.8676407 7.69661696,16.875 6.5,16.875 L2.16666667,16.875 C0.970049709,16.875 0,15.8676407 0,14.625 C0,13.3823593 0.970049709,12.375 2.16666667,12.375 Z" id="Rectangle" fill="#D90000"></path>
            <path d="M2.16666667,6.75 C1.56835819,6.75 1.08333333,7.25367966 1.08333333,7.875 C1.08333333,8.49632034 1.56835819,9 2.16666667,9 L6.5,9 C7.09830848,9 7.58333333,8.49632034 7.58333333,7.875 C7.58333333,7.25367966 7.09830848,6.75 6.5,6.75 L2.16666667,6.75 Z M2.16666667,5.625 L6.5,5.625 C7.69661696,5.625 8.66666667,6.63235931 8.66666667,7.875 C8.66666667,9.11764069 7.69661696,10.125 6.5,10.125 L2.16666667,10.125 C0.970049709,10.125 0,9.11764069 0,7.875 C0,6.63235931 0.970049709,5.625 2.16666667,5.625 Z" id="Rectangle" fill="#D90000"></path>
            <path d="M2.16666667,10.125 C1.56835819,10.125 1.08333333,10.6286797 1.08333333,11.25 C1.08333333,11.8713203 1.56835819,12.375 2.16666667,12.375 L6.5,12.375 C7.09830848,12.375 7.58333333,11.8713203 7.58333333,11.25 C7.58333333,10.6286797 7.09830848,10.125 6.5,10.125 L2.16666667,10.125 Z M2.16666667,9 L6.5,9 C7.69661696,9 8.66666667,10.0073593 8.66666667,11.25 C8.66666667,12.4926407 7.69661696,13.5 6.5,13.5 L2.16666667,13.5 C0.970049709,13.5 0,12.4926407 0,11.25 C0,10.0073593 0.970049709,9 2.16666667,9 Z" id="Rectangle-Copy" fill="#D90000"></path>
        </g>
        <g id="Group-Copy" transform="translate(55.499862, 43.824296) scale(-1, 1) rotate(-23.000000) translate(-55.499862, -43.824296) translate(48.999862, 34.824296)" fill-rule="nonzero">
            <path d="M10.6472822,6.81168468 C12.0444289,7.7452989 13,9.63583077 13,11.8160747 C13,14.9226764 11.0599006,17.4410747 8.66666667,17.4410747 C6.27343275,17.4410747 4.33333333,14.9226764 4.33333333,11.8160747 C4.33333333,9.88686244 5.08152497,8.18448851 6.22179838,7.17121092 L4.96680536,2.90843307 C4.61694842,1.72008987 5.26099648,0.462224006 6.40532697,0.0989110304 C7.54965746,-0.264401946 8.7609357,0.404417197 9.11079264,1.5927604 L10.6472822,6.81168468 Z" id="Combined-Shape" fill="#FFFFFF"></path>
            <path d="M10.06106,7.75774236 L9.72731818,7.53472632 L8.07479582,1.92167856 C7.89986735,1.32750696 7.29422823,0.993097393 6.72206298,1.17475388 C6.14989774,1.35641037 5.82787371,1.9853433 6.00280218,2.5795149 L7.46524271,7.54692031 L6.9261445,8.02597747 C6.00153879,8.84760696 5.41666667,10.2555727 5.41666667,11.8160747 C5.41666667,14.3496298 6.93155753,16.3160747 8.66666667,16.3160747 C10.4017758,16.3160747 11.9166667,14.3496298 11.9166667,11.8160747 C11.9166667,10.0543382 11.1704129,8.49904432 10.06106,7.75774236 Z M10.6472822,6.81168468 C12.0444289,7.7452989 13,9.63583077 13,11.8160747 C13,14.9226764 11.0599006,17.4410747 8.66666667,17.4410747 C6.27343275,17.4410747 4.33333333,14.9226764 4.33333333,11.8160747 C4.33333333,9.88686244 5.08152497,8.18448851 6.22179838,7.17121092 L4.96680536,2.90843307 C4.61694842,1.72008987 5.26099648,0.462224006 6.40532697,0.0989110304 C7.54965746,-0.264401946 8.7609357,0.404417197 9.11079264,1.5927604 L10.6472822,6.81168468 Z" id="Combined-Shape" fill="#D90000"></path>
            <path d="M2.16666667,12.375 L6.5,12.375 C7.69661696,12.375 8.66666667,13.3823593 8.66666667,14.625 C8.66666667,15.8676407 7.69661696,16.875 6.5,16.875 L2.16666667,16.875 C0.970049709,16.875 0,15.8676407 0,14.625 C0,13.3823593 0.970049709,12.375 2.16666667,12.375 Z" id="Rectangle-Copy" fill="#FFFFFF"></path>
            <path d="M2.16666667,9 L6.5,9 C7.69661696,9 8.66666667,10.0073593 8.66666667,11.25 C8.66666667,12.4926407 7.69661696,13.5 6.5,13.5 L2.16666667,13.5 C0.970049709,13.5 0,12.4926407 0,11.25 C0,10.0073593 0.970049709,9 2.16666667,9 Z" id="Rectangle-Copy" fill="#FFFFFF"></path>
            <path d="M2.16666667,5.625 L6.5,5.625 C7.69661696,5.625 8.66666667,6.63235931 8.66666667,7.875 C8.66666667,9.11764069 7.69661696,10.125 6.5,10.125 L2.16666667,10.125 C0.970049709,10.125 0,9.11764069 0,7.875 C0,6.63235931 0.970049709,5.625 2.16666667,5.625 Z" id="Rectangle-Copy" fill="#FFFFFF"></path>
            <path d="M2.16666667,13.5 C1.56835819,13.5 1.08333333,14.0036797 1.08333333,14.625 C1.08333333,15.2463203 1.56835819,15.75 2.16666667,15.75 L6.5,15.75 C7.09830848,15.75 7.58333333,15.2463203 7.58333333,14.625 C7.58333333,14.0036797 7.09830848,13.5 6.5,13.5 L2.16666667,13.5 Z M2.16666667,12.375 L6.5,12.375 C7.69661696,12.375 8.66666667,13.3823593 8.66666667,14.625 C8.66666667,15.8676407 7.69661696,16.875 6.5,16.875 L2.16666667,16.875 C0.970049709,16.875 0,15.8676407 0,14.625 C0,13.3823593 0.970049709,12.375 2.16666667,12.375 Z" id="Rectangle" fill="#D90000"></path>
            <path d="M2.16666667,6.75 C1.56835819,6.75 1.08333333,7.25367966 1.08333333,7.875 C1.08333333,8.49632034 1.56835819,9 2.16666667,9 L6.5,9 C7.09830848,9 7.58333333,8.49632034 7.58333333,7.875 C7.58333333,7.25367966 7.09830848,6.75 6.5,6.75 L2.16666667,6.75 Z M2.16666667,5.625 L6.5,5.625 C7.69661696,5.625 8.66666667,6.63235931 8.66666667,7.875 C8.66666667,9.11764069 7.69661696,10.125 6.5,10.125 L2.16666667,10.125 C0.970049709,10.125 0,9.11764069 0,7.875 C0,6.63235931 0.970049709,5.625 2.16666667,5.625 Z" id="Rectangle" fill="#D90000"></path>
            <path d="M2.16666667,10.125 C1.56835819,10.125 1.08333333,10.6286797 1.08333333,11.25 C1.08333333,11.8713203 1.56835819,12.375 2.16666667,12.375 L6.5,12.375 C7.09830848,12.375 7.58333333,11.8713203 7.58333333,11.25 C7.58333333,10.6286797 7.09830848,10.125 6.5,10.125 L2.16666667,10.125 Z M2.16666667,9 L6.5,9 C7.69661696,9 8.66666667,10.0073593 8.66666667,11.25 C8.66666667,12.4926407 7.69661696,13.5 6.5,13.5 L2.16666667,13.5 C0.970049709,13.5 0,12.4926407 0,11.25 C0,10.0073593 0.970049709,9 2.16666667,9 Z" id="Rectangle-Copy" fill="#D90000"></path>
        </g>
    </g>
</svg>