<?xml version="1.0" encoding="UTF-8"?>
<svg width="64px" height="64px" viewBox="0 0 64 64" version="1.1" xmlns="http://www.w3.org/2000/svg" xmlns:xlink="http://www.w3.org/1999/xlink">
    <!-- Generator: Sketch 49.2 (51160) - http://www.bohemiancoding.com/sketch -->
    <title>disgusting copy</title>
    <desc>Created with Sketch.</desc>
    <defs></defs>
    <g id="disgusting-copy" stroke="none" stroke-width="1" fill="none" fill-rule="evenodd">
        <path d="M32,60 C16.536027,60 4,47.463973 4,32 C4,16.536027 16.536027,4 32,4 C47.463973,4 60,16.536027 60,32 C60,47.463973 47.463973,60 32,60 Z" id="Oval" fill="#E33322" fill-rule="nonzero"></path>
        <circle id="Oval" fill="#F7F7F7" cx="32" cy="32" r="26"></circle>
        <path d="M18.4860552,54.2164181 C10.9989399,49.6523534 6,41.4099592 6,32 C6,17.6405965 17.6405965,6 32,6 C38.7465961,6 44.8930213,8.5696375 49.5139448,12.7835819 C45.5758767,10.3829781 40.9494443,9 36,9 C21.6405965,9 10,20.6405965 10,35 C10,42.6128074 13.2718405,49.4614355 18.4860552,54.2164181 Z" id="Combined-Shape" fill="#FFFFFF"></path>
        <path d="M15,47.0335118 C17.1005359,38.3655096 24.0740329,32 32.352964,32 C40.7243162,32 47.7609254,38.5084244 49.7744486,47.3246603 C44.5918883,45.8524823 38.4447633,45 31.852964,45 C25.708605,45 19.9506016,45.74068 15,47.0335118 Z" id="Combined-Shape" fill="#D90000"></path>
        <path d="M31.8538487,44 C37.7114769,44 43.3539911,44.6655894 48.3594777,45.9128399 C45.969486,38.2628429 39.6013733,33 32.3538487,33 C25.1939488,33 18.8851751,38.1371009 16.4309141,45.6544584 C21.1656401,44.5729505 26.4182071,44 31.8538487,44 Z M14.0290141,46.7979963 C16.2689296,37.5548345 23.7204818,31 32.3538487,31 C41.0892313,31 48.6050109,37.709135 50.7502306,47.1020053 C50.9194318,47.8428551 50.2330851,48.4942545 49.5020803,48.2866025 C44.2758873,46.8020301 38.2000666,46 31.8538487,46 C25.9323882,46 20.2433208,46.6980048 15.2535574,48.0010636 C14.521755,48.1921712 13.8508832,47.5330652 14.0290141,46.7979963 Z" id="Combined-Shape" fill="#E33322" fill-rule="nonzero"></path>
        <path d="M18.0376647,19.9481808 C17.514149,19.7722556 17.2323711,19.2052467 17.4082963,18.6817309 C17.5842215,18.1582151 18.1512304,17.8764373 18.6747462,18.0523624 L26.8997808,20.8163493 C27.7227972,21.0929204 27.8265327,22.2149178 27.0681755,22.6376965 L15.4871163,29.0940541 C15.0047298,29.3629811 14.3956699,29.189938 14.1267429,28.7075515 C13.8578159,28.225165 14.0308589,27.6161051 14.5132454,27.3471781 L24.1192819,21.9918816 L18.0376647,19.9481808 Z M45.5437075,19.9481808 L39.4620903,21.9918816 L49.0681268,27.3471781 C49.5505133,27.6161051 49.7235563,28.225165 49.4546293,28.7075515 C49.1857023,29.189938 48.5766424,29.3629811 48.0942559,29.0940541 L36.5131967,22.6376965 C35.7548395,22.2149178 35.858575,21.0929204 36.6815914,20.8163493 L44.906626,18.0523624 C45.4301418,17.8764373 45.9971507,18.1582151 46.1730759,18.6817309 C46.3490011,19.2052467 46.0672232,19.7722556 45.5437075,19.9481808 Z" id="Combined-Shape" fill="#E33322" fill-rule="nonzero"></path>
        <path d="M36.6245905,44.1039854 C39.9393184,45.6715975 41.3504043,48.5884854 40.8578484,52.8546493 C40.1190146,59.2538951 47.5363402,60.123317 50.2678682,56.4889831 C52.9993963,52.8546493 51.5844216,44.1686394 46.221135,43.0167067 C42.6456106,42.2487516 39.4467625,42.6111778 36.6245905,44.1039854 Z" id="Path-8" fill="#FF9595"></path>
    </g>
</svg>