<?xml version="1.0" encoding="UTF-8"?>
<svg width="64px" height="64px" viewBox="0 0 64 64" version="1.1" xmlns="http://www.w3.org/2000/svg" xmlns:xlink="http://www.w3.org/1999/xlink">
    <!-- Generator: Sketch 49.2 (51160) - http://www.bohemiancoding.com/sketch -->
    <title>tasty copy</title>
    <desc>Created with Sketch.</desc>
    <defs></defs>
    <g id="tasty-copy" stroke="none" stroke-width="1" fill="none" fill-rule="evenodd">
        <path d="M32,60 C16.536027,60 4,47.463973 4,32 C4,16.536027 16.536027,4 32,4 C47.463973,4 60,16.536027 60,32 C60,47.463973 47.463973,60 32,60 Z" id="Oval" fill="#E33322" fill-rule="nonzero"></path>
        <circle id="Oval" fill="#F7F7F7" cx="32" cy="32" r="26"></circle>
        <path d="M18.4860552,54.2164181 C10.9989399,49.6523534 6,41.4099592 6,32 C6,17.6405965 17.6405965,6 32,6 C38.7465961,6 44.8930213,8.5696375 49.5139448,12.7835819 C45.5758767,10.3829781 40.9494443,9 36,9 C21.6405965,9 10,20.6405965 10,35 C10,42.6128074 13.2718405,49.4614355 18.4860552,54.2164181 Z" id="Combined-Shape" fill="#FFFFFF"></path>
        <path d="M21.0853651,18.3826391 C20.636459,18.9071147 19.8473773,18.9683759 19.3229017,18.5194699 C18.798426,18.0705638 18.7371648,17.2814821 19.1860709,16.7570065 C19.7492238,16.0990515 20.7521722,15.236764 22.1688995,14.5060292 C24.5365617,13.2848112 27.235322,12.9339623 30.1586073,13.8277003 C30.8187979,14.0295408 31.1903641,14.7283552 30.9885236,15.3885459 C30.786683,16.0487365 30.0878687,16.4203027 29.427678,16.2184622 C27.1650739,15.5267147 25.131038,15.791147 23.3149131,16.7278872 C22.6746075,17.0581509 22.1086274,17.4501277 21.6261584,17.8649316 C21.345402,18.1063127 21.1624371,18.2925927 21.0853651,18.3826391 Z M47.8431002,18.3826391 C47.7660282,18.2925927 47.5830633,18.1063127 47.3023069,17.8649316 C46.8198379,17.4501277 46.2538577,17.0581509 45.6135521,16.7278872 C43.7974272,15.791147 41.7633913,15.5267147 39.5007872,16.2184622 C38.8405966,16.4203027 38.1417822,16.0487365 37.9399417,15.3885459 C37.7381011,14.7283552 38.1096673,14.0295408 38.769858,13.8277003 C41.6931432,12.9339623 44.3919036,13.2848112 46.7595657,14.5060292 C48.176293,15.236764 49.1792415,16.0990515 49.7423944,16.7570065 C50.1913004,17.2814821 50.1300392,18.0705638 49.6055636,18.5194699 C49.081088,18.9683759 48.2920062,18.9071147 47.8431002,18.3826391 Z" id="Combined-Shape" fill="#E33322" fill-rule="nonzero" transform="translate(34.464233, 16.073652) rotate(9.000000) translate(-34.464233, -16.073652) "></path>
        <path d="M45.3656212,42.0436031 C46.9757206,36.8843106 46.4879024,32.1039653 43.9021666,27.7025671 C39.7236525,20.589967 49.0540476,17.1395766 51.3164147,20.3313543 C52.3590402,21.8023043 53.1824834,23.9080727 53.4909531,26.5207432 C53.0779798,26.7169963 52.9301709,27.0673398 53.2508777,27.3672593 C52.9763809,33.3241817 49.9518813,38.575973 45.3656212,42.0436031 Z" id="Combined-Shape" fill="#FF9595" transform="translate(48.164879, 30.589778) rotate(9.000000) translate(-48.164879, -30.589778) "></path>
        <path d="M48.4779461,37.8565284 C49.3893439,35.4411039 49.7878663,30.9842573 48.8645281,27.3707716 C48.7773644,27.0296565 49.0315936,26.3138546 49.3473433,26.2289957 C49.663093,26.1441367 49.9327566,26.6695964 50.0079589,27.0634701 C50.729701,30.843608 50.6223653,33.2936279 50.0707892,36.0479526 C51.8232472,33.792402 53.0873623,31.1399637 53.6923736,28.2025593 C53.292365,27.689065 53.9265666,27.2271867 54.8364964,27.3713054 C55.2768673,27.4410533 55.7373006,28.0763047 55.6677503,28.5154282 C53.8337045,40.0951372 42.6372814,47.7133723 30.653483,45.8153251 C18.6696846,43.9172779 10.3754176,33.2120208 12.2094633,21.6323117 C12.2790136,21.1931883 12.9132152,20.73131 13.3535861,20.8010578 C14.2635159,20.9451766 14.7239492,21.580428 14.18484,21.9451807 C13.0404591,32.2095665 20.3743553,41.6752907 30.966352,43.8399484 C37.7109845,44.602401 44.1235183,42.2308322 48.4779461,37.8565284 Z" id="Combined-Shape" fill="#E33322" fill-rule="nonzero"></path>
        <path d="M10.4361708,24.052236 C10.1536334,24.5267789 9.53989842,24.6824302 9.06535543,24.3998927 C8.59081245,24.1173553 8.4351612,23.5036204 8.71769864,23.0290774 C10.6245112,19.8264416 13.4161648,18.9622219 16.7020107,20.5733397 C17.1978942,20.8164816 17.4027817,21.4155801 17.1596398,21.9114636 C16.916498,22.4073471 16.3173995,22.6122347 15.821516,22.3690928 C13.4799131,21.2209567 11.8150144,21.7363639 10.4361708,24.052236 Z" id="Path-5" fill="#E33322" fill-rule="nonzero"></path>
        <path d="M58.6966892,16.6439371 C60.9249654,13.582015 62.0391035,11.4463777 62.0391035,10.2370252 C62.0391035,8.42299652 60.5426536,6.9524357 58.6966892,6.9524357 C56.8507248,6.9524357 55.3542749,8.42299652 55.3542749,10.2370252 C55.3542749,11.4463777 56.468413,13.582015 58.6966892,16.6439371 Z" id="Oval-3" fill="#5AB0EE" transform="translate(58.696689, 11.798186) rotate(70.000000) translate(-58.696689, -11.798186) "></path>
        <path d="M52.3169862,13.2275508 C53.9836529,10.8061753 54.8169862,9.11730809 54.8169862,8.16094918 C54.8169862,6.72641082 53.6976981,5.56348771 52.3169862,5.56348771 C50.9362743,5.56348771 49.8169862,6.72641082 49.8169862,8.16094918 C49.8169862,9.11730809 50.6503196,10.8061753 52.3169862,13.2275508 Z" id="Oval-3-Copy" fill="#5AB0EE" transform="translate(52.316986, 9.395519) rotate(377.000000) translate(-52.316986, -9.395519) "></path>
    </g>
</svg>